<svg xmlns="http://www.w3.org/2000/svg" viewBox="0 0 300 126.82"><defs><style>.cls-1{fill:#fc565b;}.cls-2{fill:#fff;}.cls-3{fill:#333;}</style></defs><title>Recurso 3</title><g id="Capa_2" data-name="Capa 2"><g id="Capa_1-2" data-name="Capa 1"><polygon class="cls-1" points="300 0 0.01 0 0 62.01 95.34 62.01 113.41 79.64 131.47 62.01 300 61.98 300 0"/><path class="cls-2" d="M28.11,10.76h5.57L45.88,43.6l3.13.55v2.59H34.69V44.15L38,43.81l.39-.67-3.18-9H23.66l-3.19,9,.54.68,3.35.39v2.59H12.93V44.15l3.19-.5ZM29.28,18l-4.61,13.1H34Z"/><path class="cls-2" d="M50.34,46.74V44.35l2.82-.2.75-.81V25H50.08V22.91l7.79-2.49h2.57l-.23,5.41c.91-1,1.89-1.9,2.92-2.81s2.13-1.76,3.27-2.57c.29-.06.53-.09.71-.11l.48,0a6.82,6.82,0,0,1,1.72.22,7.93,7.93,0,0,1,1.77.68l-.67,7.33H67.64A4,4,0,0,0,66.2,27.1a4.09,4.09,0,0,0-2-.46,4.46,4.46,0,0,0-1.61.37,14.14,14.14,0,0,0-2.14,1.1V43.34l.78.81,3.78.2v2.39Z"/><path class="cls-2" d="M89.18,43.71a23.94,23.94,0,0,1-4.9,2.66,11.8,11.8,0,0,1-4.22.83,6.77,6.77,0,0,1-5-1.93,6.66,6.66,0,0,1-1.94-5A6.64,6.64,0,0,1,76,34.56q2.85-2,13.28-4.38V28.6A6.06,6.06,0,0,0,88,24.41a5,5,0,0,0-3.84-1.32,8.3,8.3,0,0,0-1.19.08,13.65,13.65,0,0,0-1.35.23v5H76.77a3,3,0,0,1-1.85-.46,1.8,1.8,0,0,1-.59-1.48c0-1.66,1.12-3.1,3.34-4.33a16.88,16.88,0,0,1,8.2-1.84q5.46,0,7.69,2.1t2.22,7.31V43.39l.7.76,2.82.25v2.34H89.87Zm0-2.18V32.88c-3.49.78-5.87,1.62-7.15,2.54a4.34,4.34,0,0,0-1.92,3.73,4,4,0,0,0,1.06,2.91,3.86,3.86,0,0,0,2.88,1.08,7.71,7.71,0,0,0,2.29-.41A17.18,17.18,0,0,0,89.18,41.53Z"/><path class="cls-2" d="M121.45,22h7.85v3h-5.75a9.44,9.44,0,0,1,.89,2,7.21,7.21,0,0,1,.3,2.05,7.74,7.74,0,0,1-3.08,6.37,12.88,12.88,0,0,1-8.19,2.44l-.92,0-.61,0a5.85,5.85,0,0,0-.32,1,5,5,0,0,0-.09.92,5.6,5.6,0,0,0,0,.68,7.15,7.15,0,0,0,.11.75l3.61.46c4.36.64,7.39,1.5,9.07,2.58a5.19,5.19,0,0,1,2.53,4.65q0,3.93-4.07,6.66a17.94,17.94,0,0,1-10.18,2.72,14.37,14.37,0,0,1-8-2,6.07,6.07,0,0,1-2.93-5.3,5.69,5.69,0,0,1,1.45-4,6.11,6.11,0,0,1,4-1.81,8.09,8.09,0,0,1-.5-1.39,4.69,4.69,0,0,1-.17-1.25,4.86,4.86,0,0,1,.7-2.48,10.65,10.65,0,0,1,2.22-2.55,9.35,9.35,0,0,1-4.88-3,7.61,7.61,0,0,1-1.69-5,8.11,8.11,0,0,1,3.06-6.62,12.72,12.72,0,0,1,8.28-2.5,17.38,17.38,0,0,1,3.6.39A21.45,21.45,0,0,1,121.45,22ZM110.36,45.73a6.24,6.24,0,0,0-1.68,2,5.13,5.13,0,0,0-.57,2.38,4.82,4.82,0,0,0,1.79,3.76,6.46,6.46,0,0,0,4.38,1.55A7,7,0,0,0,118.81,54a4.4,4.4,0,0,0,1.79-3.56,3,3,0,0,0-1.18-2.53,11.84,11.84,0,0,0-4.55-1.43ZM114,22.85a3.79,3.79,0,0,0-3.25,1.68A7.47,7.47,0,0,0,109.56,29a8.18,8.18,0,0,0,1.19,4.67,3.66,3.66,0,0,0,3.16,1.75A3.6,3.6,0,0,0,117,33.67a8.33,8.33,0,0,0,1.19-4.7A7.55,7.55,0,0,0,117,24.55,3.54,3.54,0,0,0,114,22.85Z"/><path class="cls-2" d="M144.51,20.26q6.11,0,9.71,3.7t3.6,10a12.68,12.68,0,0,1-3.76,9.58q-3.75,3.63-10,3.63a12.57,12.57,0,0,1-13.31-13.31A13.26,13.26,0,0,1,134.53,24,13.57,13.57,0,0,1,144.51,20.26Zm-.21,2.83a5,5,0,0,0-4.53,2.77,15.39,15.39,0,0,0-1.63,7.77c0,3.38.53,6,1.61,7.9a5,5,0,0,0,4.5,2.82,5.1,5.1,0,0,0,4.63-2.74q1.63-2.74,1.64-7.82a15.69,15.69,0,0,0-1.65-7.88A5.08,5.08,0,0,0,144.3,23.09Z"/><path class="cls-2" d="M161.26,46.74V44.35l2.72-.2.75-.81V25h-3.62V22.91l7.64-2.49h2.56v3.13a36.26,36.26,0,0,1,5.23-2.46,12,12,0,0,1,3.84-.77,6.58,6.58,0,0,1,5.41,2.17q1.78,2.18,1.79,6.63V43.34l.7.81,2.8.2v2.39h-13V44.35l2.28-.2.72-.81V30.65A6.79,6.79,0,0,0,180,26.31a4.42,4.42,0,0,0-3.62-1.38,12,12,0,0,0-2.22.23c-.84.16-1.77.38-2.81.67V43.34l.73.81,2.33.2v2.39Z"/><path class="cls-2" d="M210.29,43.71a23.89,23.89,0,0,1-4.89,2.66,11.84,11.84,0,0,1-4.22.83,6.77,6.77,0,0,1-5-1.93,6.67,6.67,0,0,1-2-5,6.64,6.64,0,0,1,2.85-5.75q2.85-2,13.29-4.38V28.6a6.06,6.06,0,0,0-1.22-4.19,5,5,0,0,0-3.83-1.32,8.2,8.2,0,0,0-1.19.08,12.73,12.73,0,0,0-1.35.23v5h-4.89a3,3,0,0,1-1.86-.46,1.8,1.8,0,0,1-.58-1.48q0-2.49,3.34-4.33a16.85,16.85,0,0,1,8.2-1.84q5.46,0,7.68,2.1t2.23,7.31V43.39l.7.76,2.82.25v2.34H211Zm0-2.18V32.88c-3.49.78-5.87,1.62-7.15,2.54a4.36,4.36,0,0,0-1.91,3.73,4,4,0,0,0,1.06,2.91,3.85,3.85,0,0,0,2.87,1.08,7.77,7.77,0,0,0,2.3-.41A16.76,16.76,0,0,0,210.29,41.53Z"/><path class="cls-2" d="M222.8,46.74V44.35l2.82-.2.76-.81V25h-3.84V22.91l7.8-2.49h2.56l-.23,5.41c.92-1,1.89-1.9,2.93-2.81a41.42,41.42,0,0,1,3.26-2.57c.29-.06.53-.09.71-.11l.48,0a6.76,6.76,0,0,1,1.72.22,8.19,8.19,0,0,1,1.78.68l-.67,7.33H240.1a3.9,3.9,0,0,0-1.43-1.45,4.12,4.12,0,0,0-2-.46A4.51,4.51,0,0,0,235,27a15.14,15.14,0,0,0-2.14,1.1V43.34l.78.81,3.78.2v2.39Z"/><path class="cls-2" d="M253.28,20.42h2.57V43.34l.78.81,3,.2v2.39H245.7V44.35l2.87-.2.75-.81V25h-3.49V22.91Zm-.56-12.1a3.88,3.88,0,0,1,2.84,1.1,3.75,3.75,0,0,1,1.12,2.79,4,4,0,0,1-1.1,2.89,3.91,3.91,0,0,1-6.7-2.79A4,4,0,0,1,250,9.46,3.67,3.67,0,0,1,252.72,8.32Z"/><path class="cls-2" d="M274.42,20.26q6.12,0,9.72,3.7t3.6,10A12.71,12.71,0,0,1,284,43.52a13.74,13.74,0,0,1-10,3.63A12.57,12.57,0,0,1,260.7,33.84,13.26,13.26,0,0,1,264.45,24,13.55,13.55,0,0,1,274.42,20.26Zm-.2,2.83a5,5,0,0,0-4.54,2.77,15.49,15.49,0,0,0-1.63,7.77,16,16,0,0,0,1.62,7.9,5,5,0,0,0,4.49,2.82,5.12,5.12,0,0,0,4.64-2.74q1.63-2.74,1.63-7.82a15.81,15.81,0,0,0-1.64-7.88A5.08,5.08,0,0,0,274.22,23.09Z"/><path class="cls-3" d="M117.13,91.86a6.94,6.94,0,0,1,5,1.64,6,6,0,0,1,1.76,4.62,6.9,6.9,0,0,1-.58,2.91,5.49,5.49,0,0,1-1.71,2.15,5.22,5.22,0,0,1-1.83.9,10.51,10.51,0,0,1-2.59.28h-5.44v-.91l1.14-.1.3-.29V93.17l-.3-.3-1.14-.09v-.92Zm-1.55,1v10.41h1.08A4.12,4.12,0,0,0,120,102a7.58,7.58,0,0,0,0-7.83,4.12,4.12,0,0,0-3.32-1.29Z"/><path class="cls-3" d="M127.6,95.11h.9v8l.27.28,1,.07v.83H125v-.83l1-.07.26-.28V96.72H125V96Zm-.19-4.22a1.33,1.33,0,0,1,1,.38,1.31,1.31,0,0,1,.39,1,1.37,1.37,0,0,1-.39,1,1.36,1.36,0,0,1-2.33-1,1.41,1.41,0,0,1,.38-1A1.3,1.3,0,0,1,127.41,90.89Z"/><path class="cls-3" d="M138.64,103.46a8.69,8.69,0,0,1-1.77.74,6.39,6.39,0,0,1-1.73.24,4.29,4.29,0,0,1-3.21-1.26,4.49,4.49,0,0,1-1.22-3.29,4.6,4.6,0,0,1,4.77-4.8,4,4,0,0,1,2.21.56,1.71,1.71,0,0,1,.84,1.46,1.18,1.18,0,0,1-.37.9,1.32,1.32,0,0,1-.95.36,2.16,2.16,0,0,1-.59-.08,1.79,1.79,0,0,1-.51-.27v-2a1.66,1.66,0,0,0-.26,0l-.21,0a2.08,2.08,0,0,0-1.73,1,4.15,4.15,0,0,0-.69,2.47A4,4,0,0,0,134,102a2.52,2.52,0,0,0,2.09,1,4,4,0,0,0,1.24-.21,5.66,5.66,0,0,0,1.32-.63Z"/><path class="cls-3" d="M147.46,103.46a8.69,8.69,0,0,1-1.77.74,6.45,6.45,0,0,1-1.73.24,4.29,4.29,0,0,1-3.22-1.26,4.53,4.53,0,0,1-1.22-3.29,4.6,4.6,0,0,1,4.77-4.8,4,4,0,0,1,2.21.56,1.7,1.7,0,0,1,.85,1.46,1.18,1.18,0,0,1-.38.9,1.31,1.31,0,0,1-.95.36,2.08,2.08,0,0,1-.58-.08,1.79,1.79,0,0,1-.51-.27v-2l-.27,0-.2,0a2.06,2.06,0,0,0-1.73,1,4.08,4.08,0,0,0-.7,2.47,4,4,0,0,0,.77,2.59,2.52,2.52,0,0,0,2.09,1,4.09,4.09,0,0,0,1.25-.21,6.07,6.07,0,0,0,1.32-.63Z"/><path class="cls-3" d="M150.88,95.11h.9v8l.27.28,1,.07v.83h-4.86v-.83l1-.07.26-.28V96.72h-1.22V96Zm-.19-4.22a1.33,1.33,0,0,1,1,.38,1.31,1.31,0,0,1,.39,1,1.37,1.37,0,0,1-.39,1,1.3,1.3,0,0,1-1,.39,1.29,1.29,0,0,1-1-.39,1.31,1.31,0,0,1-.39-1,1.41,1.41,0,0,1,.38-1A1.3,1.3,0,0,1,150.69,90.89Z"/><path class="cls-3" d="M158.81,95.05a4.49,4.49,0,0,1,3.39,1.29,4.77,4.77,0,0,1,1.26,3.49,4.44,4.44,0,0,1-1.31,3.34,4.79,4.79,0,0,1-3.48,1.27A4.4,4.4,0,0,1,154,99.79a4.64,4.64,0,0,1,1.31-3.44A4.77,4.77,0,0,1,158.81,95.05Zm-.07,1a1.75,1.75,0,0,0-1.58,1,5.33,5.33,0,0,0-.57,2.71,5.69,5.69,0,0,0,.56,2.76,1.75,1.75,0,0,0,1.57,1,1.79,1.79,0,0,0,1.62-1,5.39,5.39,0,0,0,.57-2.73,5.55,5.55,0,0,0-.57-2.75A1.79,1.79,0,0,0,158.74,96Z"/><path class="cls-3" d="M164.59,104.29v-.83l.95-.07.26-.28V96.72h-1.26V96l2.66-.87h.9V96.2a12.33,12.33,0,0,1,1.82-.86,4.18,4.18,0,0,1,1.34-.27,2.28,2.28,0,0,1,1.89.76,3.59,3.59,0,0,1,.62,2.32v5l.25.28,1,.07v.83h-4.53v-.83l.79-.07.25-.28V98.68a2.43,2.43,0,0,0-.39-1.52,1.57,1.57,0,0,0-1.27-.48,4.68,4.68,0,0,0-.77.08c-.29.06-.62.13-1,.24v6.11l.25.28.81.07v.83Z"/><path class="cls-3" d="M181.57,103.24a9.26,9.26,0,0,1-1.71.93,4.22,4.22,0,0,1-1.47.29,2.37,2.37,0,0,1-1.75-.68,2.34,2.34,0,0,1-.68-1.73,2.3,2.3,0,0,1,1-2,15.4,15.4,0,0,1,4.63-1.52V98a2.14,2.14,0,0,0-.42-1.46,1.73,1.73,0,0,0-1.34-.46l-.41,0a2.72,2.72,0,0,0-.47.08v1.73h-1.71a1,1,0,0,1-.65-.16.64.64,0,0,1-.2-.52c0-.57.39-1.08,1.16-1.5a5.84,5.84,0,0,1,2.86-.65,3.9,3.9,0,0,1,2.69.74,3.42,3.42,0,0,1,.77,2.55v4.79l.25.26,1,.09v.81h-3.29Zm0-.76v-3a7.48,7.48,0,0,0-2.5.88,1.54,1.54,0,0,0-.67,1.3,1.42,1.42,0,0,0,.37,1,1.37,1.37,0,0,0,1,.38,2.87,2.87,0,0,0,.8-.14A7.66,7.66,0,0,0,181.57,102.48Z"/><path class="cls-3" d="M185.83,104.29v-.83l1-.07.26-.28V96.72h-1.33V96l2.72-.87h.89L189.27,97a13.52,13.52,0,0,1,1-1,12.53,12.53,0,0,1,1.14-.9l.25,0h.17a2.47,2.47,0,0,1,.6.08,2.82,2.82,0,0,1,.62.24L192.83,98h-1a1.3,1.3,0,0,0-1.21-.67,1.53,1.53,0,0,0-.56.13,5.3,5.3,0,0,0-.75.38v5.32l.27.28,1.32.07v.83Z"/><path class="cls-3" d="M196.29,95.11h.89v8l.27.28,1,.07v.83h-4.85v-.83l1-.07.26-.28V96.72h-1.22V96Zm-.2-4.22a1.33,1.33,0,0,1,1,.38,1.31,1.31,0,0,1,.39,1,1.41,1.41,0,0,1-.38,1,1.33,1.33,0,0,1-1,.39,1.33,1.33,0,0,1-1.36-1.36,1.41,1.41,0,0,1,.38-1A1.3,1.3,0,0,1,196.09,90.89Z"/><path class="cls-3" d="M204.21,95.05a4.49,4.49,0,0,1,3.39,1.29,4.77,4.77,0,0,1,1.26,3.49,4.44,4.44,0,0,1-1.31,3.34,4.76,4.76,0,0,1-3.48,1.27,4.4,4.4,0,0,1-4.65-4.65,4.64,4.64,0,0,1,1.31-3.44A4.77,4.77,0,0,1,204.21,95.05Zm-.07,1a1.75,1.75,0,0,0-1.58,1,5.33,5.33,0,0,0-.57,2.71,5.57,5.57,0,0,0,.57,2.76,1.74,1.74,0,0,0,1.56,1,1.79,1.79,0,0,0,1.62-1,5.39,5.39,0,0,0,.57-2.73,5.55,5.55,0,0,0-.57-2.75A1.78,1.78,0,0,0,204.14,96Z"/><path class="cls-3" d="M120.08,122a8.62,8.62,0,0,1-1.77.73,6.45,6.45,0,0,1-1.73.24,4.29,4.29,0,0,1-3.21-1.25,4.51,4.51,0,0,1-1.23-3.29,4.71,4.71,0,0,1,1.34-3.46,4.64,4.64,0,0,1,3.43-1.35,3.93,3.93,0,0,1,2.22.57,1.69,1.69,0,0,1,.84,1.45,1.2,1.2,0,0,1-.37.91,1.35,1.35,0,0,1-1,.36,1.76,1.76,0,0,1-1.09-.36v-2l-.27,0h-.2a2.05,2.05,0,0,0-1.73,1,4.17,4.17,0,0,0-.7,2.47,4,4,0,0,0,.77,2.6,2.55,2.55,0,0,0,2.09,1,3.83,3.83,0,0,0,1.25-.22,6.51,6.51,0,0,0,1.32-.62Z"/><path class="cls-3" d="M126.65,121.75a8.2,8.2,0,0,1-1.71.93,4.22,4.22,0,0,1-1.47.29,2.39,2.39,0,0,1-1.75-.67,2.34,2.34,0,0,1-.67-1.73,2.32,2.32,0,0,1,1-2,15.6,15.6,0,0,1,4.64-1.53v-.55a2.06,2.06,0,0,0-.43-1.46,1.72,1.72,0,0,0-1.33-.47,3,3,0,0,0-.42,0l-.47.08v1.74h-1.71a1.13,1.13,0,0,1-.65-.16.64.64,0,0,1-.2-.52c0-.58.39-1.08,1.17-1.51a5.82,5.82,0,0,1,2.86-.64,3.87,3.87,0,0,1,2.68.73,3.41,3.41,0,0,1,.78,2.55v4.79l.24.26,1,.09v.82h-3.3Zm0-.76v-3a7.28,7.28,0,0,0-2.49.89,1.51,1.51,0,0,0-.67,1.3,1.38,1.38,0,0,0,.37,1,1.33,1.33,0,0,0,1,.37,2.81,2.81,0,0,0,.8-.14A5.61,5.61,0,0,0,126.65,121Z"/><path class="cls-3" d="M137.69,114v2.47h-1.11l-.18-1.39-.23-.21a3,3,0,0,0-.61-.22,2.6,2.6,0,0,0-.61-.07,1.67,1.67,0,0,0-1,.29,1,1,0,0,0-.37.82,1.08,1.08,0,0,0,.29.75,5.38,5.38,0,0,0,1.44.88l0,0Q138,118.63,138,120a2.74,2.74,0,0,1-1,2.24,4.29,4.29,0,0,1-2.77.82,9.34,9.34,0,0,1-1.45-.12,15.49,15.49,0,0,1-1.6-.35v-2.74h1.11l.21,1.59.19.21a3.59,3.59,0,0,0,.75.28,3.1,3.1,0,0,0,.81.1,1.7,1.7,0,0,0,1.15-.35,1.23,1.23,0,0,0,.42-1c0-.53-.53-1-1.6-1.51l-.84-.4a5.1,5.1,0,0,1-1.61-1.13,2,2,0,0,1-.47-1.31,2.4,2.4,0,0,1,1-2,4.21,4.21,0,0,1,2.65-.76,9.43,9.43,0,0,1,1.4.11A8.84,8.84,0,0,1,137.69,114Z"/><path class="cls-3" d="M140.2,115.14H139v-.7l1.37-.78,1-1.93h1.17V114h2.74v1.11H142.5v4.62a2.23,2.23,0,0,0,.33,1.42,1.59,1.59,0,0,0,1.21.38,6.05,6.05,0,0,0,.63,0,3.39,3.39,0,0,0,.57-.1v.88a10.16,10.16,0,0,1-1.52.44,6.35,6.35,0,0,1-1.31.15,3.17,3.17,0,0,1-.86-.1,2.22,2.22,0,0,1-.68-.31,1.27,1.27,0,0,1-.52-.61,4,4,0,0,1-.15-1.35Z"/><path class="cls-3" d="M154.4,120.51v1.38a8.75,8.75,0,0,1-1.92.81,7.21,7.21,0,0,1-1.94.27,4.43,4.43,0,0,1-3.32-1.27,4.6,4.6,0,0,1-1.26-3.38,4.79,4.79,0,0,1,1.28-3.44,4.42,4.42,0,0,1,3.3-1.33,3.67,3.67,0,0,1,2.84,1.1,4.36,4.36,0,0,1,1,3.09v.35h-6.07v0a3.63,3.63,0,0,0,.8,2.49,2.77,2.77,0,0,0,2.19.9,4.66,4.66,0,0,0,1.49-.25A7.21,7.21,0,0,0,154.4,120.51ZM152,117.1v-.2a3,3,0,0,0-.42-1.73,1.36,1.36,0,0,0-1.19-.6,1.64,1.64,0,0,0-1.37.68,3.18,3.18,0,0,0-.56,1.85Z"/><path class="cls-3" d="M155.4,122.81V122l1.07-.1.26-.27V110.74H155.4V110l2.79-.87H159v12.46l.28.3,1.07.1v.82Z"/><path class="cls-3" d="M161,122.81V122l1.07-.1.26-.27V110.74H161V110l2.8-.87h.81v12.46l.28.3,1.08.1v.82Z"/><path class="cls-3" d="M172.59,121.75a8.2,8.2,0,0,1-1.71.93,4.27,4.27,0,0,1-1.48.29,2.31,2.31,0,0,1-2.42-2.4,2.3,2.3,0,0,1,1-2,15.5,15.5,0,0,1,4.63-1.53v-.55a2.1,2.1,0,0,0-.42-1.46,1.73,1.73,0,0,0-1.34-.47l-.42,0-.47.08v1.74h-1.7a1.11,1.11,0,0,1-.65-.16.61.61,0,0,1-.2-.52c0-.58.38-1.08,1.16-1.51a5.84,5.84,0,0,1,2.86-.64,3.9,3.9,0,0,1,2.69.73,3.45,3.45,0,0,1,.77,2.55v4.79l.25.26,1,.09v.82h-3.29Zm0-.76v-3a7.44,7.44,0,0,0-2.5.89,1.51,1.51,0,0,0-.67,1.3,1.42,1.42,0,0,0,.37,1,1.35,1.35,0,0,0,1,.37,2.87,2.87,0,0,0,.8-.14A6.31,6.31,0,0,0,172.59,121Z"/><path class="cls-3" d="M176.88,122.81V122l1-.08.26-.28v-6.39h-1.26v-.74l2.66-.87h.9v1.1a12.33,12.33,0,0,1,1.82-.86,4.18,4.18,0,0,1,1.34-.27,2.28,2.28,0,0,1,1.89.76,3.54,3.54,0,0,1,.63,2.31v5l.24.28,1,.08v.83h-4.53V122l.79-.08.26-.28v-4.43a2.39,2.39,0,0,0-.4-1.51,1.57,1.57,0,0,0-1.27-.48,3.8,3.8,0,0,0-.77.08c-.29,0-.62.13-1,.23v6.11l.25.28.82.08v.83Z"/><path class="cls-3" d="M193,113.57a4.52,4.52,0,0,1,3.39,1.29,4.77,4.77,0,0,1,1.26,3.48,4.47,4.47,0,0,1-1.31,3.35,4.83,4.83,0,0,1-3.48,1.26,4.4,4.4,0,0,1-4.65-4.64,4.63,4.63,0,0,1,1.31-3.44A4.7,4.7,0,0,1,193,113.57Zm-.07,1a1.76,1.76,0,0,0-1.58,1,5.38,5.38,0,0,0-.57,2.71,5.69,5.69,0,0,0,.56,2.76,1.74,1.74,0,0,0,1.57,1,1.79,1.79,0,0,0,1.62-1,6.82,6.82,0,0,0,0-5.48A1.76,1.76,0,0,0,192.92,114.55Z"/><path class="cls-3" d="M207.55,110.39h1.39l-7.84,14.14h-1.38Z"/><path class="cls-3" d="M216.77,121.75a8.2,8.2,0,0,1-1.71.93,4.22,4.22,0,0,1-1.47.29,2.31,2.31,0,0,1-2.43-2.4,2.3,2.3,0,0,1,1-2A15.6,15.6,0,0,1,216.8,117v-.55a2.1,2.1,0,0,0-.43-1.46,1.73,1.73,0,0,0-1.34-.47l-.41,0-.47.08v1.74h-1.71a1.11,1.11,0,0,1-.65-.16.64.64,0,0,1-.2-.52c0-.58.39-1.08,1.16-1.51a5.86,5.86,0,0,1,2.87-.64,3.87,3.87,0,0,1,2.68.73,3.41,3.41,0,0,1,.77,2.55v4.79l.25.26,1,.09v.82H217Zm0-.76v-3a7.44,7.44,0,0,0-2.5.89,1.53,1.53,0,0,0-.67,1.3,1.38,1.38,0,0,0,.38,1,1.33,1.33,0,0,0,1,.37,2.87,2.87,0,0,0,.8-.14A5.61,5.61,0,0,0,216.77,121Z"/><path class="cls-3" d="M221,122.81V122l1-.08.26-.28v-6.39h-1.33v-.74l2.72-.87h.89l-.08,1.89c.32-.34.66-.66,1-1a12.53,12.53,0,0,1,1.14-.9l.25,0h.17a2.46,2.46,0,0,1,.6.07,2.82,2.82,0,0,1,.62.24l-.24,2.56h-1a1.28,1.28,0,0,0-.51-.5,1.39,1.39,0,0,0-.7-.17,1.76,1.76,0,0,0-.56.13,5.47,5.47,0,0,0-.75.39v5.31l.27.28,1.32.08v.83Z"/><path class="cls-3" d="M234.63,121.75a7.73,7.73,0,0,1-1.71.93,4.22,4.22,0,0,1-1.47.29,2.35,2.35,0,0,1-1.74-.67,2.54,2.54,0,0,1,.31-3.74,15.71,15.71,0,0,1,4.64-1.53v-.55a2.1,2.1,0,0,0-.42-1.46,1.74,1.74,0,0,0-1.34-.47,3.07,3.07,0,0,0-.42,0l-.47.08v1.74H230.3a1.07,1.07,0,0,1-.64-.16.62.62,0,0,1-.21-.52c0-.58.39-1.08,1.17-1.51a5.82,5.82,0,0,1,2.86-.64,3.87,3.87,0,0,1,2.68.73,3.41,3.41,0,0,1,.78,2.55v4.79l.24.26,1,.09v.82h-3.29Zm0-.76v-3a7.37,7.37,0,0,0-2.49.89,1.51,1.51,0,0,0-.67,1.3,1.38,1.38,0,0,0,.37,1,1.34,1.34,0,0,0,1,.37,2.81,2.81,0,0,0,.8-.14A5.61,5.61,0,0,0,234.63,121Z"/><path class="cls-3" d="M245.9,114.16h2.74v1h-2a3.13,3.13,0,0,1,.31.71,2.5,2.5,0,0,1,.11.71,2.71,2.71,0,0,1-1.08,2.23,4.53,4.53,0,0,1-2.86.85h-.53a1.92,1.92,0,0,0-.11.37,1.75,1.75,0,0,0,0,.32,2,2,0,0,0,0,.23,2.34,2.34,0,0,0,0,.26l1.26.17a8.62,8.62,0,0,1,3.17.9,1.81,1.81,0,0,1,.88,1.62,2.76,2.76,0,0,1-1.42,2.32,6.22,6.22,0,0,1-3.56.95,5.05,5.05,0,0,1-2.81-.68,2.12,2.12,0,0,1-1-1.85,2,2,0,0,1,.51-1.41,2.11,2.11,0,0,1,1.39-.63,2.67,2.67,0,0,1-.18-.49,1.71,1.71,0,0,1-.06-.43,1.74,1.74,0,0,1,.25-.87,3.75,3.75,0,0,1,.78-.89,3.3,3.3,0,0,1-1.71-1,2.67,2.67,0,0,1-.59-1.74,2.84,2.84,0,0,1,1.07-2.31,4.47,4.47,0,0,1,2.89-.88,6.16,6.16,0,0,1,1.26.14A7,7,0,0,1,245.9,114.16Zm-3.87,8.3a2.14,2.14,0,0,0-.59.7,1.85,1.85,0,0,0-.2.83,1.67,1.67,0,0,0,.63,1.31,2.23,2.23,0,0,0,1.52.55,2.45,2.45,0,0,0,1.59-.51,1.53,1.53,0,0,0,.62-1.24,1,1,0,0,0-.41-.88,4.14,4.14,0,0,0-1.59-.5Zm1.27-8a1.33,1.33,0,0,0-1.13.59,2.6,2.6,0,0,0-.42,1.56,2.93,2.93,0,0,0,.41,1.64,1.3,1.3,0,0,0,1.11.61,1.27,1.27,0,0,0,1.08-.62,2.89,2.89,0,0,0,.42-1.64,2.7,2.7,0,0,0-.41-1.55A1.26,1.26,0,0,0,243.3,114.47Z"/><path class="cls-3" d="M254,113.57a4.49,4.49,0,0,1,3.39,1.29,4.77,4.77,0,0,1,1.26,3.48,4.47,4.47,0,0,1-1.31,3.35,4.8,4.8,0,0,1-3.48,1.26,4.4,4.4,0,0,1-4.65-4.64,4.63,4.63,0,0,1,1.31-3.44A4.73,4.73,0,0,1,254,113.57Zm-.07,1a1.77,1.77,0,0,0-1.58,1,5.38,5.38,0,0,0-.57,2.71,5.57,5.57,0,0,0,.57,2.76,1.72,1.72,0,0,0,1.56,1,1.79,1.79,0,0,0,1.62-1,5.39,5.39,0,0,0,.57-2.73,5.52,5.52,0,0,0-.57-2.75A1.78,1.78,0,0,0,254,114.55Z"/><path class="cls-3" d="M259.81,122.81V122l.95-.08.26-.28v-6.39h-1.26v-.74l2.66-.87h.9v1.1a11.92,11.92,0,0,1,1.83-.86,4.07,4.07,0,0,1,1.33-.27,2.28,2.28,0,0,1,1.89.76,3.54,3.54,0,0,1,.63,2.31v5l.24.28,1,.08v.83h-4.53V122l.79-.08.26-.28v-4.43a2.39,2.39,0,0,0-.4-1.51,1.57,1.57,0,0,0-1.27-.48,3.8,3.8,0,0,0-.77.08c-.29,0-.62.13-1,.23v6.11l.25.28.82.08v.83Z"/><path class="cls-3" d="M279.56,120.51v1.38a8.49,8.49,0,0,1-1.91.81,7.26,7.26,0,0,1-1.94.27,4.47,4.47,0,0,1-3.33-1.27,4.64,4.64,0,0,1-1.25-3.38,4.79,4.79,0,0,1,1.28-3.44,4.39,4.39,0,0,1,3.3-1.33,3.67,3.67,0,0,1,2.84,1.1,4.36,4.36,0,0,1,1,3.09v.35H273.5v0a3.63,3.63,0,0,0,.79,2.49,2.81,2.81,0,0,0,2.2.9,4.66,4.66,0,0,0,1.49-.25A6.94,6.94,0,0,0,279.56,120.51Zm-2.44-3.41v-.2a3.09,3.09,0,0,0-.41-1.73,1.38,1.38,0,0,0-1.2-.6,1.63,1.63,0,0,0-1.36.68,3.18,3.18,0,0,0-.56,1.85Zm-.84-8h2.29l-2.85,3.52h-1.24Z"/><path class="cls-3" d="M287.46,114v2.47h-1.11l-.19-1.39-.22-.21a3.07,3.07,0,0,0-.62-.22,2.46,2.46,0,0,0-.6-.07,1.67,1.67,0,0,0-1,.29,1,1,0,0,0-.37.82,1,1,0,0,0,.29.75,5.44,5.44,0,0,0,1.43.88l0,0q2.67,1.28,2.67,2.61a2.74,2.74,0,0,1-1,2.24A4.31,4.31,0,0,1,284,123a9.34,9.34,0,0,1-1.45-.12,15.66,15.66,0,0,1-1.61-.35v-2.74H282l.22,1.59.19.21a3.39,3.39,0,0,0,.75.28,3.1,3.1,0,0,0,.81.1,1.72,1.72,0,0,0,1.15-.35,1.23,1.23,0,0,0,.42-1c0-.53-.53-1-1.6-1.51l-.84-.4a5.16,5.16,0,0,1-1.62-1.13,2,2,0,0,1-.46-1.31,2.4,2.4,0,0,1,1-2,4.2,4.2,0,0,1,2.64-.76,9.33,9.33,0,0,1,1.4.11A9,9,0,0,1,287.46,114Z"/></g></g></svg>