<svg xmlns="http://www.w3.org/2000/svg" viewBox="0 0 280 32.26"><defs><style>.cls-1{fill:#fff;}</style></defs><title>Recurso 6</title><g id="Capa_2" data-name="Capa 2"><g id="Capa_1-2" data-name="Capa 1"><path id="Path_78" data-name="Path 78" class="cls-1" d="M184.47,7.67a3.84,3.84,0,0,1,2.76.91,3.37,3.37,0,0,1,1,2.58,3.76,3.76,0,0,1-.33,1.62,3,3,0,0,1-.95,1.2,3.08,3.08,0,0,1-1,.5,5.78,5.78,0,0,1-1.44.16h-3v-.51l.63-.06.17-.16V8.4l-.17-.17-.63-.05V7.67Zm-.86.58v5.8h.61a2.28,2.28,0,0,0,1.84-.72,4.22,4.22,0,0,0,0-4.36,2.28,2.28,0,0,0-1.84-.72Z"/><path id="Path_79" data-name="Path 79" class="cls-1" d="M190.37,9.48h.5V14l.15.16.59,0v.46h-2.73v-.46l.57,0,.14-.16V10.38h-.68V10Zm-.11-2.37a.78.78,0,0,1,.56.22.72.72,0,0,1,.21.54.79.79,0,0,1-.21.57.77.77,0,0,1-1.08,0,.79.79,0,0,1-.23-.56.76.76,0,0,1,.21-.55A.74.74,0,0,1,190.26,7.11Z"/><path id="Path_80" data-name="Path 80" class="cls-1" d="M196.56,14.17a5,5,0,0,1-1,.41,3.55,3.55,0,0,1-1,.14,2.42,2.42,0,0,1-1.8-.71,2.53,2.53,0,0,1-.69-1.85,2.59,2.59,0,0,1,2.47-2.69h.21a2.15,2.15,0,0,1,1.24.32,1,1,0,0,1,.48.81.69.69,0,0,1-.21.51.73.73,0,0,1-.54.2.86.86,0,0,1-.32-.05.8.8,0,0,1-.29-.15V10L195,10h-.11a1.15,1.15,0,0,0-1,.54,2.3,2.3,0,0,0-.39,1.39,2.25,2.25,0,0,0,.43,1.46,1.43,1.43,0,0,0,1.17.53,2.1,2.1,0,0,0,.7-.12,3.86,3.86,0,0,0,.74-.35Z"/><path id="Path_81" data-name="Path 81" class="cls-1" d="M201.51,14.17a5.13,5.13,0,0,1-1,.41,3.5,3.5,0,0,1-1,.14,2.43,2.43,0,0,1-1.8-.71,2.53,2.53,0,0,1-.69-1.85,2.59,2.59,0,0,1,2.48-2.69h.2a2.15,2.15,0,0,1,1.24.32.93.93,0,0,1,.48.81.66.66,0,0,1-.21.51.69.69,0,0,1-.53.2,1,1,0,0,1-.33-.05.89.89,0,0,1-.29-.15V10l-.15,0h-.11a1.15,1.15,0,0,0-1,.54,2.37,2.37,0,0,0-.39,1.39,2.25,2.25,0,0,0,.43,1.46,1.43,1.43,0,0,0,1.17.53,2.06,2.06,0,0,0,.7-.12,3.86,3.86,0,0,0,.74-.35Z"/><path id="Path_82" data-name="Path 82" class="cls-1" d="M203.43,9.48h.5V14l.15.16.59,0v.46h-2.73v-.46l.57,0,.14-.16V10.38H202V10Zm-.11-2.37a.75.75,0,0,1,.55.22.7.7,0,0,1,.22.54.79.79,0,0,1-.21.57.76.76,0,0,1-1.31-.55.76.76,0,0,1,.21-.55.72.72,0,0,1,.53-.23Z"/><path id="Path_83" data-name="Path 83" class="cls-1" d="M207.88,9.45a2.59,2.59,0,0,1,1.9.72,2.67,2.67,0,0,1,.7,2,2.5,2.5,0,0,1-.73,1.88,2.76,2.76,0,0,1-2,.71,2.46,2.46,0,0,1-2.6-2.32,1.41,1.41,0,0,1,0-.29,2.6,2.6,0,0,1,.73-1.93A2.68,2.68,0,0,1,207.88,9.45Zm0,.55a1,1,0,0,0-.89.55,3,3,0,0,0-.32,1.52,3.06,3.06,0,0,0,.32,1.54,1,1,0,0,0,.87.56,1,1,0,0,0,.91-.54,3,3,0,0,0,.32-1.53,3,3,0,0,0-.32-1.54A1,1,0,0,0,207.84,10Z"/><path id="Path_84" data-name="Path 84" class="cls-1" d="M211.12,14.63v-.46l.53,0,.15-.16V10.38h-.71V10l1.49-.49h.5v.62a6.43,6.43,0,0,1,1-.48,2.14,2.14,0,0,1,.75-.16,1.3,1.3,0,0,1,1.06.43,2.06,2.06,0,0,1,.35,1.3V14l.14.16.54,0v.47h-2.53v-.47l.44,0L215,14V11.48a1.24,1.24,0,0,0-.22-.84.86.86,0,0,0-.71-.28,3,3,0,0,0-.43.05,4.77,4.77,0,0,0-.55.13V14l.14.16.45,0v.46Z"/><path id="Path_85" data-name="Path 85" class="cls-1" d="M220.64,14a4.46,4.46,0,0,1-1,.52,2.32,2.32,0,0,1-.83.17,1.39,1.39,0,0,1-1-.38,1.42,1.42,0,0,1,.08-2l.1-.09a8.93,8.93,0,0,1,2.6-.86v-.31a1.21,1.21,0,0,0-.23-.82,1,1,0,0,0-.76-.26l-.23,0-.26.05v1h-1a.56.56,0,0,1-.36-.1.38.38,0,0,1-.12-.28c0-.33.22-.61.66-.85a3.29,3.29,0,0,1,1.6-.36,2.2,2.2,0,0,1,1.51.41,1.9,1.9,0,0,1,.43,1.43V14l.14.15.55,0v.45h-1.84Zm0-.43V11.92a4,4,0,0,0-1.4.5.83.83,0,0,0-.38.73.75.75,0,0,0,.21.57.73.73,0,0,0,.56.21,1.33,1.33,0,0,0,.45-.08A3,3,0,0,0,220.64,13.61Z"/><path id="Path_86" data-name="Path 86" class="cls-1" d="M223,14.63v-.46l.55,0,.15-.16V10.38H223V10l1.53-.49h.5l0,1.06a7.64,7.64,0,0,1,.58-.55,6,6,0,0,1,.63-.5l.14,0h.1a2,2,0,0,1,.34,0,2,2,0,0,1,.34.14L227,11.07h-.54a.83.83,0,0,0-.28-.28.78.78,0,0,0-.39-.1.89.89,0,0,0-.32.08A2.74,2.74,0,0,0,225,11v3l.15.16.74,0v.47Z"/><path id="Path_87" data-name="Path 87" class="cls-1" d="M228.89,9.48h.51V14l.15.16.58,0v.46h-2.72v-.46l.56,0,.15-.16V10.38h-.69V10Zm-.11-2.37a.78.78,0,0,1,.56.22.7.7,0,0,1,.22.54.76.76,0,0,1-.22.57.77.77,0,0,1-1.08,0,.79.79,0,0,1-.23-.56.82.82,0,0,1,.22-.55.72.72,0,0,1,.53-.23Z"/><path id="Path_88" data-name="Path 88" class="cls-1" d="M233.34,9.45a2.56,2.56,0,0,1,1.9.72,2.68,2.68,0,0,1,.71,2,2.51,2.51,0,0,1-.74,1.88,2.74,2.74,0,0,1-2,.71,2.46,2.46,0,0,1-2.6-2.32,1.41,1.41,0,0,1,0-.29,2.56,2.56,0,0,1,.73-1.93A2.66,2.66,0,0,1,233.34,9.45Zm0,.55a1,1,0,0,0-.89.55,3.18,3.18,0,0,0-.32,1.52,3.28,3.28,0,0,0,.32,1.54,1,1,0,0,0,.88.56,1,1,0,0,0,.91-.54,3,3,0,0,0,.32-1.53,3,3,0,0,0-.32-1.54,1,1,0,0,0-.9-.56Z"/><path id="Path_89" data-name="Path 89" class="cls-1" d="M186,24.55a4.61,4.61,0,0,1-1,.42,3.9,3.9,0,0,1-1,.13,2.43,2.43,0,0,1-1.81-.7,2.54,2.54,0,0,1-.68-1.85A2.58,2.58,0,0,1,184,19.86h.21a2.25,2.25,0,0,1,1.24.31,1,1,0,0,1,.47.82.66.66,0,0,1-.21.51.73.73,0,0,1-.53.2,1.26,1.26,0,0,1-.33-.05.89.89,0,0,1-.29-.15V20.4l-.14,0h-.12a1.17,1.17,0,0,0-1,.55,2.35,2.35,0,0,0-.39,1.39,2.28,2.28,0,0,0,.43,1.45,1.41,1.41,0,0,0,1.17.53,2.33,2.33,0,0,0,.7-.11,3.38,3.38,0,0,0,.74-.36Z"/><path id="Path_90" data-name="Path 90" class="cls-1" d="M189.65,24.43a4.94,4.94,0,0,1-1,.52,2.35,2.35,0,0,1-.83.16,1.3,1.3,0,0,1-1.36-1.35,1.29,1.29,0,0,1,.56-1.12,8.21,8.21,0,0,1,2.6-.86v-.31a1.18,1.18,0,0,0-.24-.83,1,1,0,0,0-.75-.25h-.23l-.27.05v1h-.95a.6.6,0,0,1-.37-.09.36.36,0,0,1-.11-.29c0-.33.22-.61.65-.85a3.33,3.33,0,0,1,1.61-.36,2.17,2.17,0,0,1,1.5.41,1.92,1.92,0,0,1,.44,1.43v2.69l.14.15.55,0V25h-1.85Zm0-.43V22.31a4.24,4.24,0,0,0-1.4.49.84.84,0,0,0-.38.73.72.72,0,0,0,.77.79,1.7,1.7,0,0,0,.45-.08A3,3,0,0,0,189.65,24Z"/><path id="Path_91" data-name="Path 91" class="cls-1" d="M195.84,20.08v1.39h-.63l-.1-.79-.13-.11a1.38,1.38,0,0,0-.34-.12,1.32,1.32,0,0,0-.34,0,.86.86,0,0,0-.58.16.55.55,0,0,0-.21.46.63.63,0,0,0,.16.42,3.18,3.18,0,0,0,.81.49h0c1,.48,1.49,1,1.49,1.47a1.51,1.51,0,0,1-.56,1.25,2.41,2.41,0,0,1-1.56.46,5.52,5.52,0,0,1-.81-.06c-.3-.05-.6-.12-.9-.2V23.34h.62l.13.89.1.12a2.41,2.41,0,0,0,.42.16,2.31,2.31,0,0,0,.46,0,.88.88,0,0,0,.64-.2.67.67,0,0,0,.24-.55q0-.43-.9-.84l-.47-.23a2.86,2.86,0,0,1-.91-.63,1.17,1.17,0,0,1-.26-.74,1.35,1.35,0,0,1,.56-1.12,2.35,2.35,0,0,1,1.48-.42,5.25,5.25,0,0,1,.79.06A5.53,5.53,0,0,1,195.84,20.08Z"/><path id="Path_92" data-name="Path 92" class="cls-1" d="M197.25,20.72h-.67v-.4l.76-.43.55-1.08h.65V20.1h1.54v.62h-1.54v2.59a1.2,1.2,0,0,0,.19.8.85.85,0,0,0,.67.21l.35,0,.32-.05v.49a6.36,6.36,0,0,1-.85.25,3.65,3.65,0,0,1-.74.08A2,2,0,0,1,198,25a1,1,0,0,1-.38-.17.74.74,0,0,1-.29-.34,2.17,2.17,0,0,1-.08-.76Z"/><path id="Path_93" data-name="Path 93" class="cls-1" d="M205.21,23.73v.77a4.68,4.68,0,0,1-1.08.46,4,4,0,0,1-1.08.15,2.54,2.54,0,0,1-1.87-.71,2.61,2.61,0,0,1-.7-1.9,2.67,2.67,0,0,1,.72-1.93,2.41,2.41,0,0,1,1.85-.74,2.06,2.06,0,0,1,1.59.61,2.51,2.51,0,0,1,.57,1.74v.19h-3.4v0a2.08,2.08,0,0,0,.44,1.4,1.6,1.6,0,0,0,1.23.51,3,3,0,0,0,.84-.15A4.29,4.29,0,0,0,205.21,23.73Zm-1.37-1.91v-.11a1.72,1.72,0,0,0-.23-1,.79.79,0,0,0-.67-.34.93.93,0,0,0-.77.38,1.77,1.77,0,0,0-.31,1Z"/><path id="Path_94" data-name="Path 94" class="cls-1" d="M205.77,25v-.46l.6-.06.15-.14V18.25h-.75v-.42l1.57-.48h.45v7l.16.17.61.06V25Z"/><path id="Path_95" data-name="Path 95" class="cls-1" d="M208.93,25v-.46l.6-.06.15-.14V18.25h-.75v-.42l1.57-.48H211v7l.16.17.6.06V25Z"/><path id="Path_96" data-name="Path 96" class="cls-1" d="M215.41,24.43a4.94,4.94,0,0,1-1,.52,2.3,2.3,0,0,1-.82.16,1.32,1.32,0,0,1-1-.38,1.42,1.42,0,0,1,.07-2l.11-.08a8.21,8.21,0,0,1,2.6-.86v-.31a1.23,1.23,0,0,0-.24-.83,1,1,0,0,0-.75-.25h-.23l-.27.05v1H213a.6.6,0,0,1-.37-.09.36.36,0,0,1-.11-.29c0-.33.22-.61.65-.85a3.33,3.33,0,0,1,1.61-.36,2.17,2.17,0,0,1,1.5.41,2,2,0,0,1,.44,1.43v2.69l.13.15.56,0V25h-1.85Zm0-.43V22.31a4.32,4.32,0,0,0-1.4.49.86.86,0,0,0-.37.73.77.77,0,0,0,.2.58.79.79,0,0,0,.57.21,1.78,1.78,0,0,0,.45-.08A3,3,0,0,0,215.41,24Z"/><path id="Path_97" data-name="Path 97" class="cls-1" d="M217.82,25v-.47l.53,0,.15-.15V20.77h-.71v-.42l1.5-.48h.5v.61a6.76,6.76,0,0,1,1-.48,2.44,2.44,0,0,1,.75-.15,1.3,1.3,0,0,1,1.06.43,2,2,0,0,1,.35,1.29v2.79l.14.16.55,0V25h-2.54v-.46l.44,0,.14-.16V21.87a1.29,1.29,0,0,0-.22-.85.89.89,0,0,0-.71-.27,3.13,3.13,0,0,0-.43,0,5,5,0,0,0-.55.14v3.42l.14.16.46,0V25Z"/><path id="Path_98" data-name="Path 98" class="cls-1" d="M226.86,19.84a2.5,2.5,0,0,1,1.9.72,2.7,2.7,0,0,1,.71,2,2.48,2.48,0,0,1-.74,1.88,2.7,2.7,0,0,1-1.95.71,2.46,2.46,0,0,1-2.61-2.31v-.3a2.6,2.6,0,0,1,.74-1.93A2.65,2.65,0,0,1,226.86,19.84Zm0,.55a1,1,0,0,0-.89.54,3,3,0,0,0-.32,1.52,3.07,3.07,0,0,0,.32,1.55,1,1,0,0,0,.88.55,1,1,0,0,0,.91-.53,3.28,3.28,0,0,0,.32-1.54,3.17,3.17,0,0,0-.33-1.54,1,1,0,0,0-.89-.55Z"/><path id="Path_99" data-name="Path 99" class="cls-1" d="M235,18.05h.78L231.41,26h-.78Z"/><path id="Path_100" data-name="Path 100" class="cls-1" d="M240.19,24.43a4.87,4.87,0,0,1-.95.52,2.4,2.4,0,0,1-.83.16,1.33,1.33,0,0,1-1-.38,1.42,1.42,0,0,1,.07-2,.44.44,0,0,1,.11-.09,8.29,8.29,0,0,1,2.6-.86v-.31a1.18,1.18,0,0,0-.24-.83,1,1,0,0,0-.75-.25H239l-.27.05v1h-.95a.6.6,0,0,1-.37-.09.36.36,0,0,1-.11-.29c0-.33.22-.61.65-.85a3.33,3.33,0,0,1,1.61-.36,2.17,2.17,0,0,1,1.5.41,1.92,1.92,0,0,1,.44,1.43v2.69l.14.15.55,0V25h-1.85Zm0-.43V22.31a4.41,4.41,0,0,0-1.4.49.86.86,0,0,0-.37.73.72.72,0,0,0,.77.79,1.42,1.42,0,0,0,.45-.08A2.7,2.7,0,0,0,240.19,24Z"/><path id="Path_101" data-name="Path 101" class="cls-1" d="M242.58,25v-.47l.56,0,.14-.15V20.77h-.75v-.42l1.53-.48h.5l0,1.06a7.4,7.4,0,0,1,.57-.55c.21-.18.42-.35.64-.51l.14,0h.1a1.33,1.33,0,0,1,.34,0,1.4,1.4,0,0,1,.34.13l-.13,1.43H246a.93.93,0,0,0-.28-.28.7.7,0,0,0-.4-.09.82.82,0,0,0-.31.07,2.74,2.74,0,0,0-.42.21v3l.15.15.74,0V25Z"/><path id="Path_102" data-name="Path 102" class="cls-1" d="M250.21,24.43a4.59,4.59,0,0,1-1,.52,2.4,2.4,0,0,1-.83.16,1.33,1.33,0,0,1-1-.38,1.42,1.42,0,0,1,.08-2,.39.39,0,0,1,.1-.08,8.29,8.29,0,0,1,2.6-.86v-.31a1.18,1.18,0,0,0-.24-.83,1,1,0,0,0-.75-.25H249l-.26.05v1h-1a.56.56,0,0,1-.36-.09.34.34,0,0,1-.12-.29c0-.33.22-.61.65-.85a3.33,3.33,0,0,1,1.61-.36,2.16,2.16,0,0,1,1.5.41,1.92,1.92,0,0,1,.44,1.43v2.69l.14.15.55,0V25h-1.85Zm0-.43V22.31a4.27,4.27,0,0,0-1.39.49.84.84,0,0,0-.38.73.72.72,0,0,0,.77.79,1.38,1.38,0,0,0,.45-.08A2.7,2.7,0,0,0,250.21,24Z"/><path id="Path_103" data-name="Path 103" class="cls-1" d="M256.53,20.17h1.54v.58h-1.13a1.59,1.59,0,0,1,.18.4,1.39,1.39,0,0,1,.06.4,1.54,1.54,0,0,1-.61,1.25,2.53,2.53,0,0,1-1.6.47h-.3a.66.66,0,0,0-.06.2,1.1,1.1,0,0,0,0,.18.53.53,0,0,0,0,.13.77.77,0,0,0,0,.15l.71.09a4.94,4.94,0,0,1,1.77.51,1,1,0,0,1,.5.91,1.54,1.54,0,0,1-.8,1.3,3.49,3.49,0,0,1-2,.53,2.83,2.83,0,0,1-1.58-.38,1.18,1.18,0,0,1-.57-1,1.14,1.14,0,0,1,.28-.79,1.17,1.17,0,0,1,.78-.35c0-.09-.07-.18-.09-.27a1.07,1.07,0,0,1,0-.25,1,1,0,0,1,.13-.48,2.11,2.11,0,0,1,.44-.5,1.86,1.86,0,0,1-1-.59,1.49,1.49,0,0,1-.33-1,1.58,1.58,0,0,1,.6-1.29,2.49,2.49,0,0,1,1.62-.49,3.43,3.43,0,0,1,.71.08A3.77,3.77,0,0,1,256.53,20.17Zm-2.17,4.65a1.29,1.29,0,0,0-.33.4,1,1,0,0,0-.11.46,1,1,0,0,0,.35.74,1.27,1.27,0,0,0,.86.3,1.32,1.32,0,0,0,.89-.28.86.86,0,0,0,.35-.7.58.58,0,0,0-.24-.49,2.27,2.27,0,0,0-.88-.28Zm.72-4.48a.76.76,0,0,0-.64.33,1.44,1.44,0,0,0-.23.88,1.58,1.58,0,0,0,.23.92.73.73,0,0,0,.62.34.71.71,0,0,0,.61-.35,1.75,1.75,0,0,0,.23-.92,1.55,1.55,0,0,0-.23-.86A.72.72,0,0,0,255.08,20.34Z"/><path id="Path_104" data-name="Path 104" class="cls-1" d="M261.1,19.84a2.51,2.51,0,0,1,1.9.72,2.65,2.65,0,0,1,.7,2,2.47,2.47,0,0,1-.73,1.88,2.7,2.7,0,0,1-2,.71,2.46,2.46,0,0,1-2.61-2.31,1.5,1.5,0,0,1,0-.3,2.63,2.63,0,0,1,.73-1.93A2.67,2.67,0,0,1,261.1,19.84Zm0,.55a1,1,0,0,0-.89.54,3,3,0,0,0-.32,1.52,3.07,3.07,0,0,0,.32,1.55,1,1,0,0,0,.88.55A1,1,0,0,0,262,24a3.06,3.06,0,0,0,.32-1.54,3.06,3.06,0,0,0-.32-1.54A1,1,0,0,0,261.06,20.39Z"/><path id="Path_105" data-name="Path 105" class="cls-1" d="M264.34,25v-.47l.53,0,.15-.15V20.77h-.71v-.42l1.49-.48h.5v.61a6.86,6.86,0,0,1,1-.48,2.38,2.38,0,0,1,.75-.15,1.3,1.3,0,0,1,1.06.43,2,2,0,0,1,.35,1.29v2.79l.14.16.54,0V25h-2.53v-.46l.44,0,.14-.16V21.87A1.29,1.29,0,0,0,268,21a.89.89,0,0,0-.71-.27,3.13,3.13,0,0,0-.43,0,5,5,0,0,0-.55.14v3.42l.14.16.46,0V25Z"/><path id="Path_106" data-name="Path 106" class="cls-1" d="M275.42,23.73v.77a4.68,4.68,0,0,1-1.08.46,4,4,0,0,1-1.09.15,2.51,2.51,0,0,1-1.86-.71,2.57,2.57,0,0,1-.7-1.9,2.71,2.71,0,0,1,.71-1.93,2.45,2.45,0,0,1,1.86-.74,2.06,2.06,0,0,1,1.59.61,2.51,2.51,0,0,1,.57,1.74v.19H272v0a2.08,2.08,0,0,0,.45,1.4,1.59,1.59,0,0,0,1.23.51,3,3,0,0,0,.84-.15A4.29,4.29,0,0,0,275.42,23.73Zm-1.37-1.91v-.11a1.65,1.65,0,0,0-.24-1,.76.76,0,0,0-.67-.34.92.92,0,0,0-.76.38,1.86,1.86,0,0,0-.32,1Zm-.47-4.51h1.28l-1.6,2h-.69Z"/><path id="Path_107" data-name="Path 107" class="cls-1" d="M279.84,20.08v1.39h-.62l-.1-.79-.13-.11a1.54,1.54,0,0,0-.34-.12,1.37,1.37,0,0,0-.34,0,.88.88,0,0,0-.59.16.57.57,0,0,0-.21.46.59.59,0,0,0,.17.42,3.13,3.13,0,0,0,.8.49h0q1.5.72,1.5,1.47a1.52,1.52,0,0,1-.57,1.25,2.39,2.39,0,0,1-1.55.46,5.66,5.66,0,0,1-.82-.06c-.3-.05-.6-.12-.9-.2V23.34h.63l.12.89.11.12a1.92,1.92,0,0,0,.42.16,2.3,2.3,0,0,0,.45,0,.92.92,0,0,0,.65-.2.7.7,0,0,0,.23-.55q0-.43-.9-.84l-.47-.23a2.71,2.71,0,0,1-.9-.63,1.07,1.07,0,0,1-.26-.74,1.34,1.34,0,0,1,.55-1.12,2.37,2.37,0,0,1,1.48-.42,5.16,5.16,0,0,1,.79.06A4.94,4.94,0,0,1,279.84,20.08Z"/><path id="Path_108" data-name="Path 108" class="cls-1" d="M9.74,1.58h3.57l7.82,21.21,2,.35V25H14V23.14l2.15-.21.25-.44L14.3,16.67H6.87l-2,5.79.35.43,2.14.25V25H0V23.14l2-.31Zm.75,4.7-3,8.46h6Z"/><path id="Path_109" data-name="Path 109" class="cls-1" d="M24,25v-1.7l1.81-.14.48-.51V10.8H23.83V9.42l5-1.6h1.64l-.15,3.49c.59-.62,1.21-1.23,1.88-1.81A24.27,24.27,0,0,1,34.3,7.83l.46-.07h.31a4.54,4.54,0,0,1,1.1.14,5.08,5.08,0,0,1,1.14.44l-.43,4.74H35.1a2.59,2.59,0,0,0-.92-.94,2.63,2.63,0,0,0-1.29-.3,3.09,3.09,0,0,0-1,.24,10.46,10.46,0,0,0-1.37.71v9.84l.5.52,2.43.14V25Z"/><path id="Path_110" data-name="Path 110" class="cls-1" d="M48.91,22.86a15.44,15.44,0,0,1-3.14,1.72,7.83,7.83,0,0,1-2.71.54A4.28,4.28,0,0,1,38.61,21v-.37A4.28,4.28,0,0,1,40.44,17q1.83-1.31,8.52-2.83v-1a3.9,3.9,0,0,0-.78-2.71,3.18,3.18,0,0,0-2.46-.85,6.47,6.47,0,0,0-.76.05,7.42,7.42,0,0,0-.86.15V13H41a1.85,1.85,0,0,1-1.19-.3,1.14,1.14,0,0,1-.38-1c0-1.08.72-2,2.14-2.8A10.73,10.73,0,0,1,46.8,7.71c2.33,0,4,.45,4.93,1.36s1.43,2.47,1.42,4.72v8.87l.45.48,1.91.18V25H49.34Zm0-1.41V15.86a13.89,13.89,0,0,0-4.58,1.64,2.8,2.8,0,0,0-1.23,2.41,2.57,2.57,0,0,0,.68,1.89,2.51,2.51,0,0,0,1.84.69,4.89,4.89,0,0,0,1.47-.26,11.73,11.73,0,0,0,1.82-.78Z"/><path id="Path_111" data-name="Path 111" class="cls-1" d="M69.62,8.8h5v1.93H71a6.23,6.23,0,0,1,.58,1.32,4.9,4.9,0,0,1,.19,1.32,5,5,0,0,1-2,4.12,8.17,8.17,0,0,1-5.25,1.57h-.59l-.39,0a4,4,0,0,0-.21.67,3.05,3.05,0,0,0-.06.6,3.11,3.11,0,0,0,0,.43,4.44,4.44,0,0,0,.07.49l2.31.3a15.89,15.89,0,0,1,5.83,1.67,3.38,3.38,0,0,1,1.62,3,5.14,5.14,0,0,1-2.61,4.3A11.5,11.5,0,0,1,64,32.25,9.11,9.11,0,0,1,58.8,31a3.93,3.93,0,0,1-1.88-3.42A3.68,3.68,0,0,1,57.85,25a3.94,3.94,0,0,1,2.56-1.17,5.66,5.66,0,0,1-.32-.9,3.1,3.1,0,0,1-.11-.81,3.14,3.14,0,0,1,.45-1.6,6.78,6.78,0,0,1,1.43-1.64,6.08,6.08,0,0,1-3.14-1.93,5,5,0,0,1-1.08-3.23,5.21,5.21,0,0,1,2-4.27,8.08,8.08,0,0,1,5.3-1.62A10.49,10.49,0,0,1,67.22,8,14.54,14.54,0,0,1,69.62,8.8ZM62.5,24.17a4.24,4.24,0,0,0-1.08,1.3A3.45,3.45,0,0,0,61.06,27a3.11,3.11,0,0,0,1.15,2.43,4.1,4.1,0,0,0,2.8,1,4.49,4.49,0,0,0,2.91-.93,2.85,2.85,0,0,0,1.15-2.3,1.9,1.9,0,0,0-.75-1.62,7.36,7.36,0,0,0-2.92-.93ZM64.85,9.39a2.45,2.45,0,0,0-2.09,1.08,5,5,0,0,0-.77,2.9,5.34,5.34,0,0,0,.76,3,2.35,2.35,0,0,0,4,0,5.38,5.38,0,0,0,.76-3,5,5,0,0,0-.75-2.86A2.3,2.3,0,0,0,64.85,9.39Z"/><path id="Path_112" data-name="Path 112" class="cls-1" d="M84.41,7.72a8.26,8.26,0,0,1,6.23,2.38A8.92,8.92,0,0,1,93,16.55a8.26,8.26,0,0,1-2.41,6.19,8.8,8.8,0,0,1-6.4,2.35A8.35,8.35,0,0,1,78,22.72a8.48,8.48,0,0,1-2.35-6.24,8.28,8.28,0,0,1,7.74-8.77,7.66,7.66,0,0,1,1.07,0Zm-.14,1.82a3.23,3.23,0,0,0-2.91,1.79,9.9,9.9,0,0,0-1,5,10.22,10.22,0,0,0,1,5.1,3.18,3.18,0,0,0,2.88,1.83,3.28,3.28,0,0,0,3-1.78,9.92,9.92,0,0,0,1.05-5.05,10.3,10.3,0,0,0-1.05-5.09,3.27,3.27,0,0,0-2.94-1.82Z"/><path id="Path_113" data-name="Path 113" class="cls-1" d="M95.11,25v-1.7l1.79-.14.48-.51V10.8H95.05V9.42L100,7.82h1.64v2A22.93,22.93,0,0,1,105,8.25a7.59,7.59,0,0,1,2.46-.5,4.23,4.23,0,0,1,3.47,1.4A6.74,6.74,0,0,1,112,13.44v9.19l.45.52,1.79.13v1.54H106V23.28l1.47-.14.46-.51v-8.2a4.44,4.44,0,0,0-.73-2.81,2.83,2.83,0,0,0-2.33-.89,8.56,8.56,0,0,0-1.42.15c-.54.1-1.14.24-1.8.43V22.63l.46.51,1.5.14V25Z"/><path id="Path_114" data-name="Path 114" class="cls-1" d="M126.61,22.86a15.71,15.71,0,0,1-3.14,1.72,7.83,7.83,0,0,1-2.71.54A4.27,4.27,0,0,1,116.31,21a2.28,2.28,0,0,1,0-.37A4.28,4.28,0,0,1,118.14,17q1.81-1.31,8.52-2.83v-1a4,4,0,0,0-.78-2.71,3.19,3.19,0,0,0-2.46-.85,6.64,6.64,0,0,0-.77.05,8.23,8.23,0,0,0-.86.15V13h-3.14a1.87,1.87,0,0,1-1.19-.3,1.16,1.16,0,0,1-.37-1c0-1.08.71-2,2.14-2.8a10.73,10.73,0,0,1,5.27-1.19q3.5,0,4.92,1.36c1,.9,1.43,2.47,1.43,4.72v8.87l.45.48,1.81.17v1.51h-6.05Zm0-1.41V15.86A13.86,13.86,0,0,0,122,17.5a2.85,2.85,0,0,0-1.23,2.41,2.61,2.61,0,0,0,.68,1.89,2.55,2.55,0,0,0,1.85.69,4.89,4.89,0,0,0,1.47-.26,11.73,11.73,0,0,0,1.82-.78Z"/><path id="Path_115" data-name="Path 115" class="cls-1" d="M134.63,24.82V23.28l1.82-.14.47-.51V10.8h-2.45V9.42l5-1.6h1.64L141,11.31c.58-.62,1.21-1.23,1.87-1.81a26.06,26.06,0,0,1,2.1-1.67l.45-.07h.31a4.63,4.63,0,0,1,1.11.14,5.19,5.19,0,0,1,1.13.44l-.43,4.74h-1.78a2.44,2.44,0,0,0-.92-.94,2.61,2.61,0,0,0-1.29-.3,3,3,0,0,0-1,.24,10,10,0,0,0-1.38.71v9.84l.5.52,2.43.14v1.54Z"/><path id="Path_116" data-name="Path 116" class="cls-1" d="M154.19,7.82h1.64V22.63l.5.51,1.92.14v1.54h-8.93V23.28l1.85-.14.48-.51V10.8H149.4V9.42ZM153.82,0a2.51,2.51,0,0,1,1.83.71,2.44,2.44,0,0,1,.72,1.8,2.59,2.59,0,0,1-.71,1.87,2.59,2.59,0,0,1-3.58,0,2.46,2.46,0,0,1-.71-1.81,2.56,2.56,0,0,1,.7-1.84A2.32,2.32,0,0,1,153.82,0Z"/><path id="Path_117" data-name="Path 117" class="cls-1" d="M167.75,7.72A8.26,8.26,0,0,1,174,10.1a8.87,8.87,0,0,1,2.31,6.45,8.22,8.22,0,0,1-2.41,6.19,8.78,8.78,0,0,1-6.39,2.35,8.32,8.32,0,0,1-6.19-2.37,8.45,8.45,0,0,1-2.36-6.24,8.28,8.28,0,0,1,7.74-8.77,7.64,7.64,0,0,1,1.07,0Zm-.13,1.82a3.23,3.23,0,0,0-2.91,1.79,10,10,0,0,0-1.05,5,10.44,10.44,0,0,0,1,5.1,3.19,3.19,0,0,0,2.88,1.83,3.29,3.29,0,0,0,3-1.78,10.13,10.13,0,0,0,1.05-5.05,10.2,10.2,0,0,0-1.06-5.09A3.24,3.24,0,0,0,167.62,9.54Z"/></g></g></svg>