<svg xmlns="http://www.w3.org/2000/svg" viewBox="0 0 529.69 254.97"><defs><style>.cls-1{fill:#333;}.cls-2{fill:#fff;}</style></defs><title>Recurso 6</title><g id="Capa_2" data-name="Capa 2"><g id="Capa_1-2" data-name="Capa 1"><polygon class="cls-1" points="529.69 0 0 0 0 105.69 168.34 105.69 200.24 137.55 232.14 105.69 529.69 105.69 529.69 0"/><path class="cls-2" d="M49.64,15.93h9.83L81,73.92l5.53,1v4.58H61.25V74.88l5.9-.59.69-1.19L62.21,57.18H41.77L36.14,73l1,1.19,5.9.68v4.58H22.84V74.88L28.46,74Zm2,12.85L43.55,51.92H60.06Z"/><path class="cls-2" d="M88.88,79.46V75.25l5-.37,1.33-1.42V41.13H88.42V37.38L102.18,33h4.53l-.41,9.56q2.43-2.56,5.17-5A73.36,73.36,0,0,1,117.23,33c.52-.1.94-.16,1.26-.19s.6,0,.84,0a12.39,12.39,0,0,1,3,.39,14.9,14.9,0,0,1,3.13,1.21l-1.19,12.94h-4.89a7,7,0,0,0-2.54-2.56,7.22,7.22,0,0,0-3.55-.82,8,8,0,0,0-2.85.66,25.29,25.29,0,0,0-3.78,1.94V73.46l1.37,1.42,6.68.37v4.21Z"/><path class="cls-2" d="M157.45,74.1a41.46,41.46,0,0,1-8.64,4.71,21.07,21.07,0,0,1-7.46,1.47,12,12,0,0,1-8.82-3.41,11.8,11.8,0,0,1-3.43-8.76,11.69,11.69,0,0,1,5-10.15q5-3.57,23.46-7.73V47.44q0-5.07-2.15-7.41t-6.77-2.33a17.21,17.21,0,0,0-2.1.14c-.73.09-1.53.23-2.38.41V47h-8.64a5.2,5.2,0,0,1-3.27-.82,3.14,3.14,0,0,1-1-2.61q0-4.4,5.89-7.64t14.48-3.24q9.63,0,13.57,3.7t3.92,12.9V73.55l1.24,1.33,5,.46v4.12H158.68Zm0-3.84V55q-9.24,2.05-12.62,4.48a7.67,7.67,0,0,0-3.38,6.59,7,7,0,0,0,1.87,5.14,6.8,6.8,0,0,0,5.08,1.9,13.71,13.71,0,0,0,4-.71A31.13,31.13,0,0,0,157.45,70.26Z"/><path class="cls-2" d="M214.44,35.69h13.85V41H218.14a16.81,16.81,0,0,1,1.58,3.61,12.71,12.71,0,0,1,.52,3.61,13.63,13.63,0,0,1-5.44,11.25q-5.45,4.3-14.45,4.3c-.7,0-1.24,0-1.62,0l-1.08-.07a10.35,10.35,0,0,0-.57,1.85,8.56,8.56,0,0,0-.16,1.63A10.33,10.33,0,0,0,197,68.3a13.22,13.22,0,0,0,.2,1.32l6.36.83q11.56,1.68,16,4.55A9.18,9.18,0,0,1,224,83.21q0,6.95-7.18,11.75t-18,4.8q-9.06,0-14.23-3.45A10.72,10.72,0,0,1,179.5,87a10,10,0,0,1,2.56-7.13,10.68,10.68,0,0,1,7-3.2,13.81,13.81,0,0,1-.89-2.45,8.89,8.89,0,0,1-.3-2.22,8.5,8.5,0,0,1,1.24-4.36,19,19,0,0,1,3.93-4.51,16.57,16.57,0,0,1-8.62-5.26,13.47,13.47,0,0,1-3-8.82,14.33,14.33,0,0,1,5.42-11.69q5.42-4.41,14.61-4.41a29.85,29.85,0,0,1,6.36.7A37.39,37.39,0,0,1,214.44,35.69Zm-19.58,42a11.24,11.24,0,0,0-3,3.57,9.11,9.11,0,0,0-1,4.21A8.47,8.47,0,0,0,194,92.08a11.35,11.35,0,0,0,7.73,2.74,12.31,12.31,0,0,0,8-2.54A7.79,7.79,0,0,0,212.93,86a5.19,5.19,0,0,0-2.08-4.45c-1.39-1-4.07-1.87-8-2.54Zm6.45-40.38a6.71,6.71,0,0,0-5.74,3,13.29,13.29,0,0,0-2.13,7.93,14.46,14.46,0,0,0,2.11,8.26,6.45,6.45,0,0,0,5.58,3.09,6.39,6.39,0,0,0,5.49-3.14,14.67,14.67,0,0,0,2.1-8.3,13.39,13.39,0,0,0-2.08-7.8A6.28,6.28,0,0,0,201.31,37.29Z"/><path class="cls-2" d="M255.15,32.72q10.78,0,17.15,6.51t6.35,17.63q0,10.53-6.63,16.92t-17.61,6.41q-10.56,0-17-6.47t-6.47-17q0-10.84,6.63-17.4T255.15,32.72Zm-.37,5q-5.13,0-8,4.89T243.9,56.31q0,9,2.85,14t7.94,5a9.07,9.07,0,0,0,8.19-4.85q2.88-4.84,2.88-13.81t-2.91-13.9C260.92,39.36,258.22,37.7,254.78,37.7Z"/><path class="cls-2" d="M284.73,79.46V75.25l4.8-.37,1.33-1.42V41.13h-6.4V37.38L298,33h4.52v5.53a62.44,62.44,0,0,1,9.24-4.34,20.66,20.66,0,0,1,6.77-1.37q6.4,0,9.56,3.84t3.15,11.71v25.1l1.24,1.42,4.94.37v4.21H314.46V75.25l4-.37,1.28-1.42V51.05q0-5.2-2-7.66c-1.34-1.63-3.48-2.44-6.4-2.44a21.14,21.14,0,0,0-3.91.41q-2.22.41-5,1.19V73.46l1.29,1.42,4.11.37v4.21Z"/><path class="cls-2" d="M371.3,74.1a41.46,41.46,0,0,1-8.64,4.71,21.11,21.11,0,0,1-7.46,1.47,12,12,0,0,1-8.83-3.41,11.84,11.84,0,0,1-3.43-8.76A11.71,11.71,0,0,1,348,58q5-3.57,23.47-7.73V47.44q0-5.07-2.15-7.41c-1.44-1.55-3.69-2.33-6.77-2.33a17.21,17.21,0,0,0-2.1.14c-.74.09-1.53.23-2.38.41V47h-8.65a5.24,5.24,0,0,1-3.27-.82,3.16,3.16,0,0,1-1-2.61q0-4.4,5.9-7.64t14.48-3.24q9.63,0,13.56,3.7T383,49.32V73.55l1.24,1.33,5,.46v4.12H372.53Zm0-3.84V55q-9.24,2.05-12.62,4.48a7.68,7.68,0,0,0-3.39,6.59,7,7,0,0,0,1.88,5.14,6.79,6.79,0,0,0,5.07,1.9,13.83,13.83,0,0,0,4.05-.71A31.13,31.13,0,0,0,371.3,70.26Z"/><path class="cls-2" d="M393.39,79.46V75.25l5-.37,1.33-1.42V41.13h-6.77V37.38L406.69,33h4.53l-.41,9.56q2.43-2.56,5.17-5A73.36,73.36,0,0,1,421.74,33c.52-.1.94-.16,1.26-.19s.6,0,.84,0a12.39,12.39,0,0,1,3.05.39A14.9,14.9,0,0,1,430,34.41l-1.19,12.94h-4.89a7,7,0,0,0-2.54-2.56,7.22,7.22,0,0,0-3.55-.82,8.07,8.07,0,0,0-2.86.66,25.73,25.73,0,0,0-3.77,1.94V73.46l1.37,1.42,6.68.37v4.21Z"/><path class="cls-2" d="M447.21,33h4.53V73.46l1.37,1.42,5.26.37v4.21H433.81V75.25l5.08-.37,1.32-1.42V41.13H434V37.38Zm-1-21.36a6.83,6.83,0,0,1,5,1.95,6.61,6.61,0,0,1,2,4.91,7,7,0,0,1-1.94,5.1,7.14,7.14,0,0,1-9.86,0,6.72,6.72,0,0,1-2-4.94,6.92,6.92,0,0,1,1.95-5A6.39,6.39,0,0,1,446.2,11.63Z"/><path class="cls-2" d="M484.53,32.72q10.8,0,17.15,6.51T508,56.86q0,10.53-6.63,16.92T483.8,80.19q-10.56,0-17-6.47t-6.47-17q0-10.84,6.63-17.4T484.53,32.72Zm-.36,5q-5.13,0-8,4.89t-2.88,13.72q0,9,2.86,14t7.93,5a9.05,9.05,0,0,0,8.19-4.85q2.88-4.84,2.88-13.81t-2.9-13.9Q489.33,37.7,484.17,37.7Z"/><path class="cls-1" d="M207.52,158.86q5.7,0,8.85,2.92c2.09,1.95,3.14,4.71,3.14,8.26a12.49,12.49,0,0,1-1,5.21,10,10,0,0,1-3.06,3.84,9.19,9.19,0,0,1-3.28,1.59,17.77,17.77,0,0,1-4.62.51H197.8v-1.63l2-.18.54-.52V161.2l-.54-.54-2-.16v-1.64Zm-2.76,1.87v18.59h1.93q4,0,5.92-2.31c1.3-1.53,1.95-3.87,1.95-7s-.65-5.45-1.95-7-3.28-2.29-5.92-2.29Z"/><path class="cls-1" d="M226.42,164.68H228v14.38l.49.5,1.86.13v1.5h-8.72v-1.5l1.8-.13.47-.5V167.57h-2.19v-1.33Zm-.36-7.59a2.44,2.44,0,0,1,1.79.69,2.37,2.37,0,0,1,.7,1.74,2.5,2.5,0,0,1-.69,1.82,2.45,2.45,0,0,1-4.2-1.75,2.48,2.48,0,0,1,.69-1.79A2.3,2.3,0,0,1,226.06,157.09Z"/><path class="cls-1" d="M246.26,179.69a15.32,15.32,0,0,1-3.18,1.33,11.84,11.84,0,0,1-3.11.43,7.74,7.74,0,0,1-5.78-2.26,8.16,8.16,0,0,1-2.2-5.92,8.44,8.44,0,0,1,2.42-6.21,8.33,8.33,0,0,1,6.16-2.42,7,7,0,0,1,4,1,3.05,3.05,0,0,1,1.52,2.61,2.16,2.16,0,0,1-.68,1.63,2.37,2.37,0,0,1-1.71.64,3.51,3.51,0,0,1-1.05-.15,3,3,0,0,1-.92-.48v-3.53l-.48-.09-.36,0a3.71,3.71,0,0,0-3.11,1.75,7.45,7.45,0,0,0-1.25,4.44,7.19,7.19,0,0,0,1.38,4.66,4.57,4.57,0,0,0,3.76,1.71,7.36,7.36,0,0,0,2.24-.38,11.07,11.07,0,0,0,2.37-1.13Z"/><path class="cls-1" d="M262.11,179.69a15.39,15.39,0,0,1-3.19,1.33,11.77,11.77,0,0,1-3.1.43,7.73,7.73,0,0,1-5.78-2.26,8.12,8.12,0,0,1-2.2-5.92,8.27,8.27,0,0,1,8.58-8.63,7,7,0,0,1,4,1,3.05,3.05,0,0,1,1.52,2.61,2.15,2.15,0,0,1-.67,1.63,2.4,2.4,0,0,1-1.72.64,3.51,3.51,0,0,1-1-.15,3.12,3.12,0,0,1-.92-.48v-3.53l-.47-.09-.37,0a3.68,3.68,0,0,0-3.1,1.75,7.38,7.38,0,0,0-1.26,4.44,7.19,7.19,0,0,0,1.39,4.66,4.56,4.56,0,0,0,3.75,1.71,7.31,7.31,0,0,0,2.24-.38,11.37,11.37,0,0,0,2.38-1.13Z"/><path class="cls-1" d="M268.26,164.68h1.61v14.38l.49.5,1.87.13v1.5H263.5v-1.5l1.81-.13.47-.5V167.57h-2.2v-1.33Zm-.35-7.59a2.42,2.42,0,0,1,1.78.69,2.33,2.33,0,0,1,.7,1.74,2.5,2.5,0,0,1-.69,1.82,2.45,2.45,0,0,1-4.2-1.75,2.48,2.48,0,0,1,.69-1.79A2.31,2.31,0,0,1,267.91,157.09Z"/><path class="cls-1" d="M282.52,164.58a8.12,8.12,0,0,1,6.09,2.31,8.6,8.6,0,0,1,2.26,6.27,8,8,0,0,1-2.36,6,8.6,8.6,0,0,1-6.25,2.28,7.9,7.9,0,0,1-8.36-8.36,8.33,8.33,0,0,1,2.36-6.18A8.53,8.53,0,0,1,282.52,164.58Zm-.13,1.77a3.17,3.17,0,0,0-2.85,1.74,9.67,9.67,0,0,0-1,4.87,10,10,0,0,0,1,5,3.11,3.11,0,0,0,2.81,1.77,3.2,3.2,0,0,0,2.91-1.72,9.62,9.62,0,0,0,1-4.91,9.84,9.84,0,0,0-1-4.94A3.17,3.17,0,0,0,282.39,166.35Z"/><path class="cls-1" d="M292.9,181.19v-1.5l1.71-.13.47-.5V167.57H292.8v-1.33l4.8-1.56h1.61v2a21.77,21.77,0,0,1,3.28-1.54,7.26,7.26,0,0,1,2.4-.49,4.15,4.15,0,0,1,3.4,1.37,6.44,6.44,0,0,1,1.12,4.16v8.92l.44.5,1.76.13v1.5h-8.15v-1.5l1.43-.13.46-.5v-8a4.25,4.25,0,0,0-.72-2.73,2.76,2.76,0,0,0-2.27-.87,7.6,7.6,0,0,0-1.39.15c-.53.1-1.11.24-1.76.42v11l.45.5,1.46.13v1.5Z"/><path class="cls-1" d="M323.42,179.29a15.61,15.61,0,0,1-3.07,1.67,7.46,7.46,0,0,1-2.65.52,4.27,4.27,0,0,1-3.14-1.21,4.22,4.22,0,0,1-1.22-3.11,4.16,4.16,0,0,1,1.79-3.61c1.19-.85,4-1.76,8.34-2.75v-1a3.84,3.84,0,0,0-.76-2.63,3.15,3.15,0,0,0-2.41-.83,6.59,6.59,0,0,0-.75.05c-.26,0-.54.08-.84.14v3.12h-3.07a1.85,1.85,0,0,1-1.17-.29,1.11,1.11,0,0,1-.36-.92c0-1,.7-1.95,2.09-2.72a10.54,10.54,0,0,1,5.15-1.15q3.42,0,4.82,1.31c.93.88,1.39,2.41,1.39,4.59v8.61l.44.47,1.77.16v1.47h-5.91Zm0-1.37v-5.43a13.38,13.38,0,0,0-4.49,1.6,2.72,2.72,0,0,0-1.2,2.34,2.46,2.46,0,0,0,.67,1.82,2.4,2.4,0,0,0,1.8.68,5.13,5.13,0,0,0,1.44-.25A11,11,0,0,0,323.42,177.92Z"/><path class="cls-1" d="M331.07,181.19v-1.5l1.78-.13.47-.5V167.57h-2.41v-1.33l4.89-1.56h1.61l-.14,3.39c.57-.6,1.18-1.19,1.83-1.76a25.17,25.17,0,0,1,2-1.62l.45-.06.3,0a4.57,4.57,0,0,1,1.08.14,5,5,0,0,1,1.11.43l-.42,4.6h-1.74a2.45,2.45,0,0,0-.9-.91,2.5,2.5,0,0,0-1.26-.29,2.8,2.8,0,0,0-1,.23,10.17,10.17,0,0,0-1.34.69v9.56l.49.5,2.37.13v1.5Z"/><path class="cls-1" d="M349.88,164.68h1.61v14.38l.48.5,1.87.13v1.5h-8.72v-1.5l1.8-.13.47-.5V167.57H345.2v-1.33Zm-.36-7.59a2.44,2.44,0,0,1,1.79.69,2.37,2.37,0,0,1,.7,1.74,2.5,2.5,0,0,1-.69,1.82,2.46,2.46,0,0,1-4.21-1.75,2.48,2.48,0,0,1,.69-1.79A2.34,2.34,0,0,1,349.52,157.09Z"/><path class="cls-1" d="M364.13,164.58a8.12,8.12,0,0,1,6.09,2.31,8.6,8.6,0,0,1,2.26,6.27,8,8,0,0,1-2.35,6,8.64,8.64,0,0,1-6.26,2.28,7.89,7.89,0,0,1-8.35-8.36,8.32,8.32,0,0,1,2.35-6.18A8.53,8.53,0,0,1,364.13,164.58Zm-.13,1.77a3.18,3.18,0,0,0-2.85,1.74,9.67,9.67,0,0,0-1,4.87,10,10,0,0,0,1,5,3.11,3.11,0,0,0,2.82,1.77,3.23,3.23,0,0,0,2.91-1.72,9.74,9.74,0,0,0,1-4.91,10,10,0,0,0-1-4.94A3.19,3.19,0,0,0,364,166.35Z"/><path class="cls-1" d="M212.28,213a15.16,15.16,0,0,1-3.19,1.33,11.71,11.71,0,0,1-3.1.43,7.71,7.71,0,0,1-5.78-2.26,8.16,8.16,0,0,1-2.2-5.92,8.43,8.43,0,0,1,2.41-6.2,8.33,8.33,0,0,1,6.17-2.42,7,7,0,0,1,4,1,3.05,3.05,0,0,1,1.52,2.61,2.16,2.16,0,0,1-.68,1.63,2.37,2.37,0,0,1-1.71.64,3.51,3.51,0,0,1-1-.15,3,3,0,0,1-.92-.48v-3.53l-.48-.09-.37,0a3.71,3.71,0,0,0-3.1,1.75,7.45,7.45,0,0,0-1.25,4.44,7.24,7.24,0,0,0,1.38,4.67,4.59,4.59,0,0,0,3.76,1.7,7.07,7.07,0,0,0,2.24-.38,10.61,10.61,0,0,0,2.37-1.13Z"/><path class="cls-1" d="M224.09,212.57a14.85,14.85,0,0,1-3.07,1.67,7.42,7.42,0,0,1-2.65.52,4.16,4.16,0,0,1-4.35-4.32,4.18,4.18,0,0,1,1.79-3.61q1.78-1.26,8.33-2.75v-1a3.79,3.79,0,0,0-.76-2.63,3.14,3.14,0,0,0-2.41-.83,6.57,6.57,0,0,0-.74.05,8.07,8.07,0,0,0-.85.15V203h-3.07a1.81,1.81,0,0,1-1.16-.3,1.08,1.08,0,0,1-.37-.92c0-1,.7-1.95,2.1-2.72a10.61,10.61,0,0,1,5.14-1.15q3.42,0,4.82,1.32c.93.87,1.4,2.4,1.4,4.58v8.61l.44.47,1.77.17v1.46h-5.92Zm0-1.37v-5.43a13.3,13.3,0,0,0-4.48,1.6,2.72,2.72,0,0,0-1.2,2.34,2.5,2.5,0,0,0,.66,1.83,2.44,2.44,0,0,0,1.81.67,4.84,4.84,0,0,0,1.44-.25A11.33,11.33,0,0,0,224.09,211.2Z"/><path class="cls-1" d="M243.94,198.66v4.43h-2l-.33-2.5-.4-.37a4.91,4.91,0,0,0-1.11-.39,4.57,4.57,0,0,0-1.09-.13,3,3,0,0,0-1.87.52,1.8,1.8,0,0,0-.66,1.48A1.88,1.88,0,0,0,237,203a9.88,9.88,0,0,0,2.58,1.58l.07,0q4.78,2.31,4.79,4.7a4.89,4.89,0,0,1-1.81,4,7.7,7.7,0,0,1-5,1.47,17.28,17.28,0,0,1-2.61-.21,24.21,24.21,0,0,1-2.88-.63v-4.93h2l.39,2.86.35.38a6.64,6.64,0,0,0,1.34.52,5.82,5.82,0,0,0,1.45.18,3.07,3.07,0,0,0,2.07-.65,2.15,2.15,0,0,0,.76-1.76c0-.94-1-1.85-2.88-2.71-.65-.3-1.15-.53-1.51-.72a8.94,8.94,0,0,1-2.9-2,3.58,3.58,0,0,1-.84-2.37,4.33,4.33,0,0,1,1.78-3.59,7.62,7.62,0,0,1,4.76-1.36,16.23,16.23,0,0,1,2.51.2A16.46,16.46,0,0,1,243.94,198.66Z"/><path class="cls-1" d="M248.45,200.69h-2.16v-1.27l2.46-1.4,1.74-3.46h2.09v4.13h4.93v2h-4.93V209a4,4,0,0,0,.6,2.55,2.77,2.77,0,0,0,2.16.69,10.13,10.13,0,0,0,1.15-.06c.35,0,.69-.1,1-.17v1.58a19.47,19.47,0,0,1-2.73.79,12.31,12.31,0,0,1-2.36.26,6.05,6.05,0,0,1-1.55-.18,3.72,3.72,0,0,1-1.21-.55,2.36,2.36,0,0,1-.94-1.1,7.33,7.33,0,0,1-.27-2.43Z"/><path class="cls-1" d="M274,210.34v2.47a15.06,15.06,0,0,1-3.45,1.46,12.66,12.66,0,0,1-3.48.49,8,8,0,0,1-6-2.29,8.28,8.28,0,0,1-2.25-6.06,8.54,8.54,0,0,1,2.3-6.19,7.87,7.87,0,0,1,5.93-2.39,6.64,6.64,0,0,1,5.11,2,7.91,7.91,0,0,1,1.82,5.55V206H263.06v.09a6.49,6.49,0,0,0,1.44,4.47,4.94,4.94,0,0,0,3.93,1.63,8.31,8.31,0,0,0,2.69-.46A13.22,13.22,0,0,0,274,210.34Zm-4.39-6.13v-.35a5.47,5.47,0,0,0-.75-3.12,2.43,2.43,0,0,0-2.14-1.08,3,3,0,0,0-2.46,1.21,5.81,5.81,0,0,0-1,3.34Z"/><path class="cls-1" d="M275.77,214.47V213l1.92-.2.47-.47V192.77h-2.39v-1.33l5-1.56h1.47v22.39l.5.54,1.93.2v1.46Z"/><path class="cls-1" d="M285.9,214.47V213l1.92-.2.47-.47V192.77H285.9v-1.33l5-1.56h1.46v22.39l.5.54,1.94.2v1.46Z"/><path class="cls-1" d="M306.67,212.57a14.89,14.89,0,0,1-3.08,1.67,7.41,7.41,0,0,1-2.64.52,4.25,4.25,0,0,1-3.14-1.21,4.55,4.55,0,0,1,.57-6.72q1.78-1.26,8.33-2.75v-1a3.79,3.79,0,0,0-.76-2.63,3.13,3.13,0,0,0-2.4-.83,6.59,6.59,0,0,0-.75.05,8.07,8.07,0,0,0-.85.15V203h-3.07a1.81,1.81,0,0,1-1.16-.3,1.11,1.11,0,0,1-.37-.92c0-1,.7-1.95,2.1-2.72a10.61,10.61,0,0,1,5.14-1.15c2.29,0,3.89.44,4.82,1.32s1.4,2.4,1.4,4.58v8.61l.44.47L313,213v1.46H307.1Zm0-1.37v-5.43a13.29,13.29,0,0,0-4.49,1.6,2.72,2.72,0,0,0-1.2,2.34,2.5,2.5,0,0,0,.66,1.83,2.44,2.44,0,0,0,1.81.67,4.84,4.84,0,0,0,1.44-.25A11.4,11.4,0,0,0,306.67,211.2Z"/><path class="cls-1" d="M314.38,214.47V213l1.71-.13.47-.5V200.85h-2.27v-1.33l4.79-1.56h1.61v2a23.32,23.32,0,0,1,3.28-1.54,7.57,7.57,0,0,1,2.41-.49,4.13,4.13,0,0,1,3.39,1.37,6.44,6.44,0,0,1,1.13,4.16v8.92l.44.5,1.75.13v1.5H325V213l1.43-.13.45-.5v-8a4.31,4.31,0,0,0-.71-2.73,2.82,2.82,0,0,0-2.28-.86,7.5,7.5,0,0,0-1.39.14c-.52.1-1.11.24-1.76.42v11l.46.5,1.46.13v1.5Z"/><path class="cls-1" d="M343.34,197.86a8.12,8.12,0,0,1,6.1,2.32,8.6,8.6,0,0,1,2.26,6.26,8,8,0,0,1-2.36,6,8.62,8.62,0,0,1-6.26,2.28,7.9,7.9,0,0,1-8.35-8.35,8.34,8.34,0,0,1,2.36-6.19A8.51,8.51,0,0,1,343.34,197.86Zm-.13,1.77a3.16,3.16,0,0,0-2.84,1.74,9.71,9.71,0,0,0-1,4.88,10,10,0,0,0,1,4.95,3.13,3.13,0,0,0,2.82,1.77,3.2,3.2,0,0,0,2.91-1.72,9.71,9.71,0,0,0,1-4.91,9.85,9.85,0,0,0-1-4.94A3.18,3.18,0,0,0,343.21,199.63Z"/><path class="cls-1" d="M368.88,192.14h2.51L357.3,217.56h-2.49Z"/><path class="cls-1" d="M382.46,212.57a15.11,15.11,0,0,1-3.07,1.67,7.42,7.42,0,0,1-2.65.52,4.27,4.27,0,0,1-3.14-1.21,4.57,4.57,0,0,1,.57-6.72q1.79-1.26,8.34-2.75v-1a3.84,3.84,0,0,0-.76-2.63,3.15,3.15,0,0,0-2.41-.83,6.59,6.59,0,0,0-.75.05,7.5,7.5,0,0,0-.84.15V203h-3.07a1.86,1.86,0,0,1-1.17-.3,1.11,1.11,0,0,1-.36-.92c0-1,.7-1.95,2.09-2.72a10.65,10.65,0,0,1,5.15-1.15q3.42,0,4.82,1.32c.93.87,1.39,2.4,1.39,4.58v8.61l.44.47,1.78.17v1.46H382.9Zm0-1.37v-5.43a13.22,13.22,0,0,0-4.48,1.6,2.71,2.71,0,0,0-1.21,2.34,2.51,2.51,0,0,0,.67,1.83,2.4,2.4,0,0,0,1.8.67,4.74,4.74,0,0,0,1.44-.25A11,11,0,0,0,382.46,211.2Z"/><path class="cls-1" d="M390.12,214.47V213l1.77-.13.47-.5V200.85H390v-1.33l4.89-1.56h1.61l-.14,3.39c.57-.6,1.18-1.19,1.83-1.76s1.34-1.11,2.05-1.62l.45-.06.3,0A4.45,4.45,0,0,1,402,198a5.5,5.5,0,0,1,1.11.43l-.42,4.6H401a2.53,2.53,0,0,0-.9-.91,2.61,2.61,0,0,0-1.26-.29,3,3,0,0,0-1,.23,10.17,10.17,0,0,0-1.34.69v9.56l.49.5,2.37.13v1.5Z"/><path class="cls-1" d="M414.57,212.57a14.85,14.85,0,0,1-3.07,1.67,7.42,7.42,0,0,1-2.65.52,4.23,4.23,0,0,1-3.13-1.21,4.55,4.55,0,0,1,.57-6.72q1.79-1.26,8.33-2.75v-1a3.79,3.79,0,0,0-.76-2.63,3.14,3.14,0,0,0-2.41-.83,6.42,6.42,0,0,0-.74.05,7.65,7.65,0,0,0-.85.15V203h-3.07a1.81,1.81,0,0,1-1.16-.3,1.08,1.08,0,0,1-.37-.92c0-1,.7-1.95,2.1-2.72a10.61,10.61,0,0,1,5.14-1.15q3.42,0,4.82,1.32c.93.87,1.4,2.4,1.4,4.58v8.61l.44.47,1.77.17v1.46H415Zm0-1.37v-5.43a13.22,13.22,0,0,0-4.48,1.6,2.72,2.72,0,0,0-1.2,2.34,2.5,2.5,0,0,0,.66,1.83,2.44,2.44,0,0,0,1.81.67,4.73,4.73,0,0,0,1.43-.25A11,11,0,0,0,414.57,211.2Z"/><path class="cls-1" d="M434.82,198.92h4.93v1.87h-3.61a6.16,6.16,0,0,1,.56,1.28,4.67,4.67,0,0,1,.19,1.28,4.86,4.86,0,0,1-1.94,4,8,8,0,0,1-5.13,1.53h-.58l-.38,0a3.25,3.25,0,0,0-.21.65,4,4,0,0,0,0,.58c0,.13,0,.27,0,.42a3.85,3.85,0,0,0,.08.47l2.25.3a15.78,15.78,0,0,1,5.7,1.61,3.26,3.26,0,0,1,1.58,2.92,5,5,0,0,1-2.55,4.18,11.21,11.21,0,0,1-6.38,1.7,9,9,0,0,1-5.06-1.22,3.82,3.82,0,0,1-1.83-3.33,3.54,3.54,0,0,1,.91-2.53,3.81,3.81,0,0,1,2.5-1.14,4.88,4.88,0,0,1-.32-.87,3.17,3.17,0,0,1-.1-.79,3,3,0,0,1,.44-1.55,6.64,6.64,0,0,1,1.39-1.6,5.9,5.9,0,0,1-3.06-1.87,4.77,4.77,0,0,1-1.07-3.13,5.11,5.11,0,0,1,1.93-4.16,8,8,0,0,1,5.19-1.56,11.07,11.07,0,0,1,2.26.24A13.78,13.78,0,0,1,434.82,198.92Zm-6.95,14.91a4,4,0,0,0-1.06,1.27,3.25,3.25,0,0,0-.36,1.5,3,3,0,0,0,1.12,2.35,4.06,4.06,0,0,0,2.75,1,4.37,4.37,0,0,0,2.84-.9,2.77,2.77,0,0,0,1.13-2.24,1.85,1.85,0,0,0-.74-1.58,7.3,7.3,0,0,0-2.86-.9Zm2.29-14.34a2.37,2.37,0,0,0-2,1,4.69,4.69,0,0,0-.76,2.82,5.12,5.12,0,0,0,.75,2.94,2.29,2.29,0,0,0,2,1.09,2.27,2.27,0,0,0,2-1.11,5.2,5.2,0,0,0,.75-3,4.77,4.77,0,0,0-.74-2.77A2.21,2.21,0,0,0,430.16,199.49Z"/><path class="cls-1" d="M449.45,197.86a8.09,8.09,0,0,1,6.09,2.32,8.56,8.56,0,0,1,2.26,6.26,8,8,0,0,1-2.36,6,8.6,8.6,0,0,1-6.25,2.28,7.9,7.9,0,0,1-8.36-8.35,8.34,8.34,0,0,1,2.36-6.19A8.53,8.53,0,0,1,449.45,197.86Zm-.13,1.77a3.17,3.17,0,0,0-2.85,1.74,9.71,9.71,0,0,0-1,4.88,10.1,10.1,0,0,0,1,4.95,3.13,3.13,0,0,0,2.82,1.77,3.2,3.2,0,0,0,2.91-1.72,9.6,9.6,0,0,0,1-4.91,9.84,9.84,0,0,0-1-4.94A3.17,3.17,0,0,0,449.32,199.63Z"/><path class="cls-1" d="M459.83,214.47V213l1.71-.13.47-.5V200.85h-2.28v-1.33l4.8-1.56h1.61v2a22.81,22.81,0,0,1,3.28-1.54,7.52,7.52,0,0,1,2.4-.49,4.15,4.15,0,0,1,3.4,1.37,6.44,6.44,0,0,1,1.12,4.16v8.92l.44.5,1.76.13v1.5h-8.15V213l1.43-.13.46-.5v-8a4.25,4.25,0,0,0-.72-2.73,2.79,2.79,0,0,0-2.27-.86,7.5,7.5,0,0,0-1.39.14c-.53.1-1.11.24-1.76.42v11l.45.5,1.46.13v1.5Z"/><path class="cls-1" d="M495.34,210.34v2.47a15.06,15.06,0,0,1-3.45,1.46,12.66,12.66,0,0,1-3.48.49,8,8,0,0,1-6-2.29,8.28,8.28,0,0,1-2.25-6.06,8.54,8.54,0,0,1,2.3-6.19,7.87,7.87,0,0,1,5.93-2.39,6.64,6.64,0,0,1,5.11,2,7.91,7.91,0,0,1,1.82,5.55V206h-10.9v.09a6.49,6.49,0,0,0,1.43,4.47,4.94,4.94,0,0,0,3.94,1.63,8.3,8.3,0,0,0,2.68-.46A13.22,13.22,0,0,0,495.34,210.34ZM491,204.21v-.35a5.47,5.47,0,0,0-.75-3.12,2.43,2.43,0,0,0-2.14-1.08,2.94,2.94,0,0,0-2.45,1.21,5.74,5.74,0,0,0-1,3.34Zm-1.51-14.44h4.11l-5.12,6.34h-2.22Z"/><path class="cls-1" d="M509.53,198.66v4.43h-2l-.33-2.5-.4-.37a4.91,4.91,0,0,0-1.11-.39,4.57,4.57,0,0,0-1.09-.13,3,3,0,0,0-1.87.52,1.8,1.8,0,0,0-.66,1.48,1.88,1.88,0,0,0,.52,1.34,9.88,9.88,0,0,0,2.58,1.58l.07,0Q510,207,510,209.35a4.89,4.89,0,0,1-1.81,4,7.7,7.7,0,0,1-5,1.47,17.18,17.18,0,0,1-2.61-.21,24.21,24.21,0,0,1-2.88-.63v-4.93h2l.39,2.86.35.38a6.64,6.64,0,0,0,1.34.52,5.82,5.82,0,0,0,1.45.18,3.07,3.07,0,0,0,2.07-.65,2.15,2.15,0,0,0,.76-1.76c0-.94-1-1.85-2.88-2.71-.65-.3-1.15-.53-1.51-.72a8.94,8.94,0,0,1-2.9-2,3.58,3.58,0,0,1-.84-2.37,4.33,4.33,0,0,1,1.78-3.59,7.61,7.61,0,0,1,4.75-1.36,16.26,16.26,0,0,1,2.52.2A16.46,16.46,0,0,1,509.53,198.66Z"/><path class="cls-1" d="M208.25,245.85a14.63,14.63,0,0,1-3.07,1.67,7.42,7.42,0,0,1-2.65.52,4.27,4.27,0,0,1-3.14-1.21,4.55,4.55,0,0,1,.57-6.72c1.19-.84,4-1.76,8.34-2.74v-1a3.84,3.84,0,0,0-.76-2.63,3.15,3.15,0,0,0-2.41-.83,6.59,6.59,0,0,0-.75.05,7.5,7.5,0,0,0-.84.15v3.12h-3.07a1.91,1.91,0,0,1-1.17-.29,1.14,1.14,0,0,1-.36-.93c0-1,.7-1.94,2.09-2.71a10.54,10.54,0,0,1,5.15-1.16q3.42,0,4.82,1.32c.93.88,1.39,2.4,1.39,4.58v8.61l.44.48,1.77.16v1.46h-5.91Zm0-1.37v-5.42a13.2,13.2,0,0,0-4.49,1.59,2.72,2.72,0,0,0-1.2,2.34,2.47,2.47,0,0,0,.67,1.83,2.4,2.4,0,0,0,1.8.67,4.79,4.79,0,0,0,1.44-.25A11,11,0,0,0,208.25,244.48Z"/><path class="cls-1" d="M215.9,247.75v-1.49l1.78-.13.47-.51V234.13h-2.41V232.8l4.89-1.56h1.61l-.14,3.4q.85-.91,1.83-1.77a25.06,25.06,0,0,1,2-1.61,3.35,3.35,0,0,1,.45-.07l.3,0a4.51,4.51,0,0,1,1.08.14,5.5,5.5,0,0,1,1.11.43l-.42,4.6h-1.74a2.53,2.53,0,0,0-.9-.91,2.61,2.61,0,0,0-1.26-.29,2.84,2.84,0,0,0-1,.24,8.2,8.2,0,0,0-1.34.69v9.55l.49.51,2.37.13v1.49Z"/><path class="cls-1" d="M240.36,245.85a14.63,14.63,0,0,1-3.07,1.67,7.42,7.42,0,0,1-2.65.52,4.27,4.27,0,0,1-3.14-1.21,4.57,4.57,0,0,1,.57-6.72c1.19-.84,4-1.76,8.34-2.74v-1a3.79,3.79,0,0,0-.76-2.63,3.14,3.14,0,0,0-2.41-.83,6.59,6.59,0,0,0-.75.05,7.5,7.5,0,0,0-.84.15v3.12h-3.07a1.88,1.88,0,0,1-1.16-.29,1.12,1.12,0,0,1-.37-.93c0-1,.7-1.94,2.09-2.71a10.54,10.54,0,0,1,5.15-1.16q3.42,0,4.82,1.32c.93.88,1.39,2.4,1.39,4.58v8.61l.44.48,1.78.16v1.46H240.8Zm0-1.37v-5.42a13,13,0,0,0-4.48,1.59,2.71,2.71,0,0,0-1.21,2.34,2.51,2.51,0,0,0,.67,1.83,2.4,2.4,0,0,0,1.8.67,4.74,4.74,0,0,0,1.44-.25A11,11,0,0,0,240.36,244.48Z"/><path class="cls-1" d="M260.61,232.2h4.92v1.87h-3.6a6.16,6.16,0,0,1,.56,1.28,4.65,4.65,0,0,1,.18,1.28,4.85,4.85,0,0,1-1.93,4,8,8,0,0,1-5.14,1.53H255l-.38,0a3.54,3.54,0,0,0-.21.66,2.87,2.87,0,0,0-.05.57,3.32,3.32,0,0,0,0,.43c0,.15,0,.3.07.47l2.26.29a15.6,15.6,0,0,1,5.7,1.62,3.26,3.26,0,0,1,1.58,2.91,5,5,0,0,1-2.55,4.18,11.22,11.22,0,0,1-6.38,1.71,9,9,0,0,1-5.06-1.23,3.83,3.83,0,0,1-1.84-3.32,3.61,3.61,0,0,1,.91-2.54,3.83,3.83,0,0,1,2.51-1.14,4.88,4.88,0,0,1-.32-.87,3.18,3.18,0,0,1-.11-.78,3.1,3.1,0,0,1,.44-1.56,7.15,7.15,0,0,1,1.4-1.6,5.9,5.9,0,0,1-3.06-1.87,4.77,4.77,0,0,1-1.07-3.13,5.08,5.08,0,0,1,1.93-4.15,7.94,7.94,0,0,1,5.19-1.57,11.07,11.07,0,0,1,2.26.24A13.78,13.78,0,0,1,260.61,232.2Zm-7,14.92a4.11,4.11,0,0,0-1.05,1.26,3.25,3.25,0,0,0-.36,1.5,3,3,0,0,0,1.12,2.36,4.06,4.06,0,0,0,2.75,1,4.37,4.37,0,0,0,2.84-.9,2.76,2.76,0,0,0,1.12-2.24,1.82,1.82,0,0,0-.74-1.58,7.35,7.35,0,0,0-2.85-.9Zm2.3-14.35a2.38,2.38,0,0,0-2,1,4.64,4.64,0,0,0-.76,2.81,5.12,5.12,0,0,0,.75,2.94,2.3,2.3,0,0,0,2,1.1,2.28,2.28,0,0,0,1.95-1.12,5.18,5.18,0,0,0,.75-3,4.77,4.77,0,0,0-.74-2.77A2.22,2.22,0,0,0,256,232.77Z"/><path class="cls-1" d="M275.24,231.14a8.11,8.11,0,0,1,6.09,2.32,8.56,8.56,0,0,1,2.26,6.26,8,8,0,0,1-2.36,6A8.63,8.63,0,0,1,275,248a7.9,7.9,0,0,1-8.36-8.35,8.34,8.34,0,0,1,2.36-6.19A8.53,8.53,0,0,1,275.24,231.14Zm-.13,1.77a3.16,3.16,0,0,0-2.85,1.74,9.71,9.71,0,0,0-1,4.88,10.1,10.1,0,0,0,1,4.95,3.12,3.12,0,0,0,2.82,1.78,3.21,3.21,0,0,0,2.91-1.73,9.58,9.58,0,0,0,1-4.9,9.88,9.88,0,0,0-1-4.95A3.17,3.17,0,0,0,275.11,232.91Z"/><path class="cls-1" d="M285.62,247.75v-1.49l1.71-.13.47-.51V234.13h-2.28V232.8l4.8-1.56h1.61v2a22,22,0,0,1,3.28-1.55,7.52,7.52,0,0,1,2.4-.49,4.15,4.15,0,0,1,3.4,1.37,6.46,6.46,0,0,1,1.12,4.16v8.92l.44.51,1.76.13v1.49h-8.15v-1.49l1.43-.13.46-.51v-8a4.21,4.21,0,0,0-.72-2.72,2.76,2.76,0,0,0-2.27-.87,8.37,8.37,0,0,0-1.39.14c-.53.1-1.11.24-1.76.43v11l.45.51,1.46.13v1.49Z"/><path class="cls-1" d="M321.13,243.62v2.47a15.56,15.56,0,0,1-3.45,1.47,13,13,0,0,1-3.48.48,8,8,0,0,1-6-2.29,8.28,8.28,0,0,1-2.25-6.06,8.52,8.52,0,0,1,2.3-6.18,7.84,7.84,0,0,1,5.93-2.4,6.64,6.64,0,0,1,5.11,2,7.91,7.91,0,0,1,1.82,5.55v.64H310.22v.1a6.48,6.48,0,0,0,1.44,4.46,4.94,4.94,0,0,0,3.93,1.63,8.31,8.31,0,0,0,2.69-.46A13.22,13.22,0,0,0,321.13,243.62Zm-4.39-6.12v-.36A5.41,5.41,0,0,0,316,234a2.43,2.43,0,0,0-2.14-1.08,2.94,2.94,0,0,0-2.46,1.21,5.76,5.76,0,0,0-1,3.34Zm-1.51-14.45h4.11l-5.12,6.34H312Z"/><path class="cls-1" d="M335.32,231.94v4.43h-2l-.33-2.5-.4-.37a6.13,6.13,0,0,0-1.11-.39,4.57,4.57,0,0,0-1.09-.13,2.91,2.91,0,0,0-1.87.53,1.77,1.77,0,0,0-.66,1.47,1.92,1.92,0,0,0,.52,1.35A9.94,9.94,0,0,0,331,237.9l.07,0q4.79,2.31,4.79,4.7a4.89,4.89,0,0,1-1.81,4,7.7,7.7,0,0,1-5,1.47,17.18,17.18,0,0,1-2.61-.21,24.79,24.79,0,0,1-2.89-.63v-4.92h2l.39,2.86.34.37a6.37,6.37,0,0,0,1.35.52,5.82,5.82,0,0,0,1.45.18,3.12,3.12,0,0,0,2.07-.64,2.22,2.22,0,0,0,.76-1.77c0-.94-1-1.84-2.88-2.71-.65-.29-1.15-.53-1.51-.72a8.94,8.94,0,0,1-2.9-2,3.55,3.55,0,0,1-.84-2.36,4.31,4.31,0,0,1,1.78-3.6,7.61,7.61,0,0,1,4.75-1.36,16.26,16.26,0,0,1,2.52.2A16.46,16.46,0,0,1,335.32,231.94Z"/><path class="cls-1" d="M352.22,225.42h2.5l-14.09,25.42h-2.49Z"/><path class="cls-1" d="M369.83,246.26a15.89,15.89,0,0,1-3.19,1.32,11.37,11.37,0,0,1-3.1.43,7.69,7.69,0,0,1-5.78-2.26,8.09,8.09,0,0,1-2.2-5.91,8.4,8.4,0,0,1,2.41-6.21,8.31,8.31,0,0,1,6.17-2.42,7.08,7.08,0,0,1,4,1,3.05,3.05,0,0,1,1.52,2.61,2.13,2.13,0,0,1-.67,1.63,2.4,2.4,0,0,1-1.72.65,3.5,3.5,0,0,1-1.05-.16,3.12,3.12,0,0,1-.92-.48V233a2.54,2.54,0,0,0-.47-.09l-.37,0a3.68,3.68,0,0,0-3.1,1.75,7.4,7.4,0,0,0-1.26,4.44,7.22,7.22,0,0,0,1.39,4.67,4.55,4.55,0,0,0,3.75,1.7,7.07,7.07,0,0,0,2.24-.38,10.89,10.89,0,0,0,2.38-1.13Z"/><path class="cls-1" d="M381.64,245.85a14.63,14.63,0,0,1-3.07,1.67,7.46,7.46,0,0,1-2.65.52,4.27,4.27,0,0,1-3.14-1.21,4.55,4.55,0,0,1,.57-6.72c1.19-.84,4-1.76,8.34-2.74v-1a3.79,3.79,0,0,0-.77-2.63,3.12,3.12,0,0,0-2.4-.83,6.59,6.59,0,0,0-.75.05,7.5,7.5,0,0,0-.84.15v3.12h-3.07a1.91,1.91,0,0,1-1.17-.29,1.14,1.14,0,0,1-.36-.93c0-1,.7-1.94,2.09-2.71a10.54,10.54,0,0,1,5.15-1.16q3.42,0,4.82,1.32c.93.88,1.39,2.4,1.39,4.58v8.61l.44.48,1.77.16v1.46h-5.91Zm0-1.37v-5.42a13.2,13.2,0,0,0-4.49,1.59A2.72,2.72,0,0,0,376,243a2.47,2.47,0,0,0,.67,1.83,2.4,2.4,0,0,0,1.8.67,4.84,4.84,0,0,0,1.44-.25A11,11,0,0,0,381.64,244.48Z"/><path class="cls-1" d="M401.48,231.94v4.43h-2l-.32-2.5-.41-.37a6.31,6.31,0,0,0-1.1-.39,4.57,4.57,0,0,0-1.09-.13,2.89,2.89,0,0,0-1.87.53A1.78,1.78,0,0,0,394,235a2,2,0,0,0,.52,1.35,10.06,10.06,0,0,0,2.59,1.57l.06,0q4.8,2.31,4.8,4.7a4.9,4.9,0,0,1-1.82,4,7.66,7.66,0,0,1-5,1.47,17.15,17.15,0,0,1-2.6-.21,24.79,24.79,0,0,1-2.89-.63v-4.92h2l.39,2.86.34.37a6,6,0,0,0,1.35.52,5.82,5.82,0,0,0,1.45.18,3.16,3.16,0,0,0,2.07-.64,2.21,2.21,0,0,0,.75-1.77c0-.94-1-1.84-2.87-2.71-.65-.29-1.16-.53-1.51-.72a9,9,0,0,1-2.91-2,3.6,3.6,0,0,1-.83-2.36,4.31,4.31,0,0,1,1.78-3.6,7.59,7.59,0,0,1,4.75-1.36,15.25,15.25,0,0,1,5,.83Z"/><path class="cls-1" d="M406,234h-2.16V232.7l2.45-1.4,1.74-3.46h2.1V232h4.92v2h-4.92v8.3a4,4,0,0,0,.6,2.55,2.77,2.77,0,0,0,2.16.69,10.39,10.39,0,0,0,1.15-.06,7.88,7.88,0,0,0,1-.17v1.58a19.36,19.36,0,0,1-2.72.79,12.31,12.31,0,0,1-2.36.26,6.08,6.08,0,0,1-1.56-.18,3.61,3.61,0,0,1-1.21-.55,2.4,2.4,0,0,1-.93-1.1,7.22,7.22,0,0,1-.27-2.42Z"/><path class="cls-1" d="M431.51,243.62v2.47a15.36,15.36,0,0,1-3.45,1.47,13,13,0,0,1-3.48.48,8,8,0,0,1-6-2.29,8.28,8.28,0,0,1-2.25-6.06,8.56,8.56,0,0,1,2.3-6.18,7.86,7.86,0,0,1,5.93-2.4,6.62,6.62,0,0,1,5.11,2,7.87,7.87,0,0,1,1.82,5.55v.64h-10.9v.1a6.53,6.53,0,0,0,1.43,4.46,5,5,0,0,0,3.94,1.63,8.36,8.36,0,0,0,2.69-.46A12.94,12.94,0,0,0,431.51,243.62Zm-4.38-6.12v-.36a5.41,5.41,0,0,0-.75-3.11,2.45,2.45,0,0,0-2.15-1.08,2.92,2.92,0,0,0-2.45,1.21,5.76,5.76,0,0,0-1,3.34Z"/><path class="cls-1" d="M433.32,247.75v-1.46l1.92-.2.47-.47V226.06h-2.39v-1.34l5-1.56h1.46v22.4l.51.53,1.93.2v1.46Z"/><path class="cls-1" d="M443.44,247.75v-1.46l1.92-.2.47-.47V226.06h-2.39v-1.34l5-1.56h1.47v22.4l.5.53,1.93.2v1.46Z"/><path class="cls-1" d="M464.21,245.85a14.63,14.63,0,0,1-3.07,1.67,7.42,7.42,0,0,1-2.65.52,4.27,4.27,0,0,1-3.14-1.21,4.57,4.57,0,0,1,.57-6.72c1.19-.84,4-1.76,8.34-2.74v-1a3.84,3.84,0,0,0-.76-2.63,3.15,3.15,0,0,0-2.41-.83,6.59,6.59,0,0,0-.75.05,7.5,7.5,0,0,0-.84.15v3.12h-3.07a1.93,1.93,0,0,1-1.17-.29,1.14,1.14,0,0,1-.36-.93c0-1,.7-1.94,2.09-2.71a10.54,10.54,0,0,1,5.15-1.16q3.42,0,4.82,1.32c.93.88,1.39,2.4,1.39,4.58v8.61l.44.48,1.78.16v1.46h-5.92Zm0-1.37v-5.42a13,13,0,0,0-4.48,1.59,2.71,2.71,0,0,0-1.21,2.34,2.51,2.51,0,0,0,.67,1.83,2.4,2.4,0,0,0,1.8.67,4.74,4.74,0,0,0,1.44-.25A11,11,0,0,0,464.21,244.48Z"/><path class="cls-1" d="M471.93,247.75v-1.49l1.71-.13.47-.51V234.13h-2.28V232.8l4.8-1.56h1.61v2a22,22,0,0,1,3.28-1.55,7.52,7.52,0,0,1,2.4-.49,4.15,4.15,0,0,1,3.4,1.37,6.46,6.46,0,0,1,1.12,4.16v8.92l.44.51,1.75.13v1.49h-8.14v-1.49l1.43-.13.46-.51v-8a4.21,4.21,0,0,0-.72-2.72,2.76,2.76,0,0,0-2.27-.87,8.37,8.37,0,0,0-1.39.14c-.53.1-1.11.24-1.76.43v11l.45.51,1.46.13v1.49Z"/><path class="cls-1" d="M500.89,231.14a8.08,8.08,0,0,1,6.09,2.32,8.56,8.56,0,0,1,2.26,6.26,8,8,0,0,1-2.35,6,8.68,8.68,0,0,1-6.26,2.27,7.9,7.9,0,0,1-8.35-8.35,8.33,8.33,0,0,1,2.35-6.19A8.53,8.53,0,0,1,500.89,231.14Zm-.13,1.77a3.16,3.16,0,0,0-2.84,1.74,9.6,9.6,0,0,0-1,4.88,10,10,0,0,0,1,4.95,3.1,3.1,0,0,0,2.82,1.78,3.23,3.23,0,0,0,2.91-1.73,9.69,9.69,0,0,0,1-4.9,9.89,9.89,0,0,0-1-4.95A3.19,3.19,0,0,0,500.76,232.91Z"/></g></g></svg>