<?xml version="1.0" encoding="UTF-8"?>
<svg width="164px" height="40px" viewBox="0 0 164 40" version="1.1" xmlns="http://www.w3.org/2000/svg" xmlns:xlink="http://www.w3.org/1999/xlink">
    <!-- Generator: Sketch 50.2 (55047) - http://www.bohemiancoding.com/sketch -->
    <title>grafica/aragon turismo logo horiz</title>
    <desc>Created with Sketch.</desc>
    <defs>
        <polygon id="path-1" points="0.0107817822 0.0423739837 108.342297 0.0423739837 108.342297 24.9955447 0.0107817822 24.9955447"></polygon>
        <polygon id="path-3" points="0 0.12198374 23.5623184 0.12198374 23.5623184 23.2546667 0 23.2546667"></polygon>
    </defs>
    <g id="Symbols" stroke="none" stroke-width="1" fill="none" fill-rule="evenodd">
        <g id="desk/organismo/estructura/footer" transform="translate(-200.000000, -360.000000)">
            <g id="grafica/aragon-turismo-logo-horiz" transform="translate(200.000000, 360.000000)">
                <g id="Group-3" stroke-width="1" transform="translate(55.532673, 2.606504)">
                    <mask id="mask-2" fill="white">
                        <use xlink:href="#path-1"></use>
                    </mask>
                    <g id="Clip-2"></g>
                    <path d="M13.2252848,24.6430244 L16.8498471,24.6430244 L8.64465109,5.73830894 L8.19129663,5.73830894 L0.0107817822,24.6430244 L3.63501941,24.6430244 L4.96910257,21.4417236 L11.8655461,21.4417236 L13.2252848,24.6430244 Z M10.5571184,18.1903415 L6.30318574,18.1903415 L8.4429798,13.0732683 L10.5571184,18.1903415 Z M33.5625838,24.6430244 L29.0819739,17.9376585 C30.8190749,16.8794472 31.8504887,14.9383089 31.8504887,12.468065 C31.8504887,8.71294309 29.4093244,6.24302439 25.8100927,6.24302439 L19.089665,6.24302439 L19.089665,24.6430244 L22.7139026,24.6430244 L22.7139026,18.7945691 L25.8354234,18.7945691 L25.8604293,18.7945691 L29.434655,24.6430244 L33.5625838,24.6430244 Z M22.7139026,9.4940813 L24.929364,9.4940813 C27.0938392,9.4940813 28.2012451,10.5275772 28.2012451,12.519122 C28.2012451,14.5096911 27.0938392,15.5438374 24.9790511,15.5438374 L22.7139026,15.5438374 L22.7139026,9.4940813 Z M47.7075026,24.6430244 L51.3323897,24.6430244 L43.1268689,5.73830894 L42.6731897,5.73830894 L34.4929996,24.6430244 L38.1178867,24.6430244 L39.4522947,21.4417236 L46.349063,21.4417236 L47.7075026,24.6430244 Z M45.039661,18.1903415 L40.7857283,18.1903415 L42.9251976,13.0732683 L45.039661,18.1903415 Z M60.5949798,14.5604228 L60.5949798,17.8118049 L64.0435263,17.8118049 L64.0435263,21.1896911 C63.1871541,21.4921301 62.0550669,21.6940813 61.0980214,21.6940813 C57.5991382,21.6940813 55.510655,19.1978211 55.510655,15.4426992 C55.510655,11.7122927 57.5991382,9.19196748 61.0980214,9.19196748 C62.9107897,9.19196748 64.5718986,9.89733333 65.8549956,10.9061138 L67.215059,7.95652033 C65.6539739,6.74708943 63.4135065,5.96530081 60.8966749,5.96530081 C55.3849758,5.96530081 51.6590907,9.74643902 51.6590907,15.4426992 C51.6590907,21.1396098 55.3849758,24.9200976 60.8966749,24.9200976 C63.4644927,24.9200976 66.1066788,24.164 67.667764,23.0550569 L67.667764,14.5604228 L60.5949798,14.5604228 Z M79.0694986,4.98221138 L84.3304887,2.63814634 L83.0210867,0.0423739837 L78.2887937,3.52074797 L79.0694986,4.98221138 Z M80.2525719,24.9200976 C85.815257,24.9200976 89.5148372,21.1396098 89.5148372,15.4426992 C89.5148372,9.74643902 85.815257,5.96530081 80.2525719,5.96530081 C74.6898867,5.96530081 70.9903065,9.74643902 70.9903065,15.4426992 C70.9903065,21.1396098 74.6898867,24.9200976 80.2525719,24.9200976 Z M80.2525719,21.6940813 C77.0056966,21.6940813 74.8408966,19.1731057 74.8408966,15.4426992 C74.8408966,11.7122927 77.0056966,9.19196748 80.2525719,9.19196748 C83.5000966,9.19196748 85.6642471,11.7122927 85.6642471,15.4426992 C85.6642471,19.1731057 83.5000966,21.6940813 80.2525719,21.6940813 Z M104.718124,6.24302439 L104.718124,16.8287154 L93.3664016,5.89017886 L93.1140689,5.89017886 L93.1140689,24.6430244 L96.738956,24.6430244 L96.738956,14.2836748 L108.090679,24.9955447 L108.342362,24.9955447 L108.342362,6.24302439 L104.718124,6.24302439 Z" id="Fill-1" fill="#1D1D1B" mask="url(#mask-2)"></path>
                </g>
                <path d="M77.4428459,39.6027967 L77.9825846,39.6027967 L77.9825846,33.9169431 L80.0499588,33.9169431 L80.0499588,33.4353171 L75.3754717,33.4353171 L75.3754717,33.9169431 L77.4428459,33.9169431 L77.4428459,39.6027967 Z M88.6568737,39.6795447 C90.0231073,39.6795447 90.9350123,38.7497886 90.9350123,37.3644228 L90.9350123,33.4353171 L90.3946242,33.4353171 L90.4030677,37.347187 C90.4030677,38.4453984 89.7025766,39.1975935 88.6568737,39.1975935 C87.6095469,39.1975935 86.9100301,38.4453984 86.9100301,37.347187 L86.9181489,33.4353171 L86.3777608,33.4353171 L86.3777608,37.3644228 C86.3777608,38.7497886 87.289341,39.6795447 88.6568737,39.6795447 Z M101.91262,39.6027967 L100.435971,37.1865366 C101.136137,36.8990569 101.583321,36.2486504 101.583321,35.3949919 C101.583321,34.2122276 100.722727,33.4353171 99.4990598,33.4353171 L97.7268855,33.4353171 L97.7268855,39.6027967 L98.2672737,39.6027967 L98.2672737,37.347187 L99.5669331,37.347187 C99.6939113,37.347187 99.8111469,37.3384065 99.9300063,37.3211707 L101.271234,39.6027967 L101.91262,39.6027967 Z M99.4237172,36.8740163 L98.2672737,36.8740163 L98.2672737,33.9169431 L99.355844,33.9169431 C100.393428,33.9169431 101.034814,34.4909268 101.034814,35.4037724 C101.034814,36.2993821 100.427852,36.8740163 99.4237172,36.8740163 Z M108.181967,39.6027967 L108.721705,39.6027967 L108.721705,33.4353171 L108.181967,33.4353171 L108.181967,39.6027967 Z M117.116882,39.6795447 C118.130109,39.6795447 119.066046,39.2567805 119.066046,38.0821463 C119.066046,37.143935 118.459084,36.7806829 117.471511,36.3166179 C116.71224,35.9442602 116.088066,35.707187 116.088066,34.9052358 C116.088066,34.1614959 116.636248,33.8489756 117.42085,33.8489756 C117.83426,33.8489756 118.281444,33.9423089 118.763052,34.1875122 L118.906268,33.7052358 C118.483765,33.4853984 117.935907,33.3585691 117.404288,33.3585691 C116.400153,33.3585691 115.522347,33.8317398 115.522347,34.9133659 C115.522347,35.9023089 116.265056,36.2909268 117.143187,36.7045854 C117.885895,37.0684878 118.501626,37.2964553 118.501626,38.0740163 C118.501626,38.910439 117.818022,39.1810081 117.116882,39.1810081 C116.47582,39.1810081 115.817872,38.9442602 115.404462,38.6906016 L115.21026,39.1468618 C115.666537,39.4681626 116.400153,39.6795447 117.116882,39.6795447 Z M131.470291,39.6027967 L131.06565,33.2919024 L130.980565,33.2919024 L128.542323,37.6174309 L126.112525,33.2919024 L126.02809,33.2919024 L125.622798,39.6027967 L126.162537,39.6027967 L126.484042,34.8626341 L128.50043,38.5045854 L128.584866,38.5045854 L130.609373,34.8626341 L130.930553,39.6027967 L131.470291,39.6027967 Z M140.979369,39.6795447 C142.818767,39.6795447 144.042434,38.411252 144.042434,36.5192195 C144.042434,34.6268618 142.818767,33.3585691 140.979369,33.3585691 C139.148739,33.3585691 137.925396,34.6268618 137.925396,36.5192195 C137.925396,38.411252 139.148739,39.6795447 140.979369,39.6795447 Z M140.979369,39.1975935 C139.486157,39.1975935 138.490466,38.124748 138.490466,36.5192195 C138.490466,34.9133659 139.486157,33.8405203 140.979369,33.8405203 C142.47323,33.8405203 143.468921,34.9133659 143.468921,36.5192195 C143.468921,38.124748 142.47323,39.1975935 140.979369,39.1975935 Z" id="Fill-4" fill="#1D1D1B"></path>
                <path d="M48.0889244,23.485561 C48.0980174,23.4240976 48.0808055,23.3603577 48.0418352,23.3122276 L38.3193956,11.2517398 C36.7745481,8.73726829 35.6957204,5.86474797 35.1988491,2.94117073 C35.1894313,2.88686179 35.1423422,2.8481626 35.088758,2.8481626 C35.084861,2.8481626 35.0806392,2.8481626 35.0764174,2.8484878 C35.0176372,2.85499187 34.9737956,2.90637398 34.9767184,2.96588618 C35.0637521,4.69596748 35.3436887,6.40035772 35.8100333,8.05986992 C34.238556,5.63060163 33.1217323,2.91905691 32.5397758,0.0894634146 C32.5287343,0.0367804878 32.4819699,3.25203252e-05 32.4300095,3.25203252e-05 C32.4248135,3.25203252e-05 32.4192927,0.000357723577 32.4137719,0.00133333333 C32.3553164,0.00946341463 32.3130986,0.0624715447 32.3186194,0.121658537 C32.599855,3.35580488 33.5640451,6.50962602 35.1277283,9.34702439 L32.5550392,8.10637398 C32.5089244,8.08393496 32.458263,8.07222764 32.401756,8.07222764 L32.4014313,8.07222764 C32.3377798,8.07352846 32.2757521,8.09239024 32.2234669,8.12653659 C32.1081798,8.20100813 32.0503739,8.32165854 32.0714828,8.45694309 C32.1188966,8.7076748 32.128964,9.01108943 32.1270154,9.25856911 L29.5374392,8.37986992 C29.5020412,8.3684878 29.4650194,8.36230894 29.4283224,8.36230894 C29.413059,8.36230894 29.3971461,8.36295935 29.3809085,8.36556098 C29.3182313,8.37466667 29.2594511,8.40100813 29.212362,8.44035772 C29.1077917,8.52718699 29.0639501,8.65694309 29.1009719,8.78734959 C29.176964,9.02637398 29.2240531,9.31710569 29.2532808,9.57401626 L27.3005442,9.27385366 L27.5359897,11.1379187 C27.5957442,11.0988943 27.6574471,11.0653984 27.7240214,11.0374309 C28.7135422,10.6162927 29.7631422,10.2972683 30.8432689,10.0881626 C31.9344372,9.92003252 32.9863105,9.83482927 33.9706352,9.83482927 C34.0433798,9.83482927 34.1151501,9.83613008 34.1875699,9.83710569 C33.1428412,9.89921951 32.0312135,10.0614959 30.8692491,10.3242602 C30.8669758,10.3252358 30.8640531,10.3258862 30.8608055,10.3265366 C29.7819778,10.6146667 28.7427699,11.0117398 27.7714352,11.508 C27.708758,11.5398699 27.6512768,11.5762927 27.5960689,11.6143415 L28.9327501,22.188 L28.9256055,22.188 C29.1964491,24.5099512 30.586065,26.6569431 32.8232848,27.7945041 C33.3756887,28.0745041 33.9469283,28.2777561 34.5243382,28.4068618 C33.6851778,28.3141789 32.8479659,28.0722276 32.0503739,27.6660488 C29.8540729,26.549626 28.4748491,24.4605203 28.1689323,22.188 L28.158865,22.188 L26.3727263,4.14149593 L26.3282352,3.69173984 C26.2626352,3.26637398 25.9989362,2.91743089 25.6439818,2.73043902 C25.641059,2.72556098 25.6381362,2.72165854 25.6355382,2.72068293 C24.9584293,2.38669919 24.2683303,2.08198374 23.5587461,1.84360976 C23.5395857,1.83743089 23.5204253,1.83613008 23.5019145,1.84035772 C23.4678154,1.84686179 23.4376135,1.86865041 23.4217006,1.90182114 C23.3973442,1.95352846 23.415855,2.01499187 23.4639184,2.04491057 C23.6759818,2.1779187 23.8766788,2.32295935 24.0682828,2.47743089 C24.3823184,2.78344715 24.4469442,3.26377236 24.2352055,3.64523577 L24.1293362,3.77564228 L22.8657244,5.32718699 L4.7597996,27.268 C4.62405307,27.4345041 4.59027881,27.5811707 4.85560158,27.7037724 C5.08130455,27.7964553 5.41092832,27.7792195 5.59408871,27.6419837 L21.2569006,14.5138537 C21.5020887,14.3437724 21.799562,14.2426341 22.1204174,14.2426341 C22.8475382,14.2426341 23.4548253,14.7551545 23.6016135,15.4393821 C23.6029125,15.4442602 23.6123303,15.4449106 23.6279184,15.4410081 L23.6383105,15.4761301 L11.5731065,29.9837724 C11.4380095,30.149626 11.4042352,30.2969431 11.6692333,30.4195447 C11.895261,30.5122276 12.22456,30.4953171 12.4077204,30.3580813 L23.0339461,21.4143415 C23.0553798,21.3971057 23.0998709,21.3610081 23.1635224,21.3083252 C23.411958,21.130439 23.7159263,21.0244228 24.0445758,21.0244228 C24.7720214,21.0244228 25.3789838,21.5369431 25.5257719,22.2208455 C25.5257719,22.2208455 25.5569481,22.3314146 25.5910471,22.4540163 C25.5861758,22.4598699 25.5819541,22.464748 25.5770828,22.471252 L17.4368372,32.2579187 C17.3014154,32.4240976 17.2676412,32.5707642 17.5332887,32.6933659 C17.7589917,32.7870244 18.0886154,32.7697886 18.2714511,32.6319024 L18.2129956,32.6052358 L18.2467699,32.6192195 L18.2480689,32.6185691 L18.2714511,32.6319024 L24.784362,27.1219837 C25.0373442,26.9307642 25.3517046,26.8169431 25.6926947,26.8169431 C26.4201402,26.8169431 27.0274273,27.3301138 27.1738907,28.0136911 C27.174865,28.0185691 27.1816848,28.026374 27.1924016,28.0371057 L22.1135976,34.1392195 C21.9781758,34.3050732 21.9444016,34.4517398 22.2093996,34.5743415 C22.4354273,34.6676748 22.7647263,34.650439 22.9478867,34.5125528 L25.9826986,31.8836098 C25.9895184,31.8797073 25.997962,31.8741789 26.0119263,31.8621463 C26.2778986,31.6283252 26.6270075,31.4868618 27.0092412,31.4868618 C27.6434828,31.4868618 28.1864689,31.8780813 28.4118471,32.4325528 L28.4163937,32.4478374 C28.5946828,32.8058862 28.6781442,33.3375935 28.6781442,34.0614959 C28.6781442,35.927187 27.4330432,37.4979187 25.7371857,37.9736911 C25.7267937,37.9785691 25.7164016,37.983122 25.7060095,37.9883252 C27.1492095,38.9453984 28.8639026,39.4897886 30.6659541,39.4897886 L30.6662788,39.4897886 C30.9286788,39.4897886 31.1946511,39.4784065 31.4577006,39.4546667 C36.4290115,39.0192195 40.1162511,34.5766179 39.6775105,29.5506016 C39.4768135,27.2559675 38.438255,25.1375935 36.7534392,23.584748 C36.2364333,23.1089756 34.9936055,22.2595447 34.9202115,22.2114146 C33.4016689,21.2130407 32.4397521,19.5971057 32.2806234,17.7759675 C32.1231184,15.9740163 32.7878867,14.2306016 34.0501996,13.0084878 C33.4344689,14.5034472 33.156156,16.167187 33.3071659,17.8943415 C33.3734154,18.6575935 33.513059,19.4026341 33.7309679,20.1050732 C33.7325917,20.1109268 33.7338907,20.1167805 33.736164,20.1229593 C33.7364887,20.1242602 33.7368135,20.1249106 33.7368135,20.1262114 C33.737463,20.1275122 33.738762,20.128813 33.738762,20.1301138 C33.8160531,20.3535285 33.9673877,20.5486504 34.170358,20.6748293 C34.1778273,20.6800325 34.1859461,20.6845854 34.1943897,20.6881626 L43.7089877,25.1197073 C43.7122352,25.1216585 43.7154828,25.1236098 43.7193798,25.1262114 C43.7853046,25.1590569 43.847657,25.2003577 43.906762,25.2501138 C44.2971145,25.5785691 44.3692095,26.143122 44.0866749,26.5502764 C43.9291699,26.7382439 43.7606234,26.9193821 43.5790867,27.0901138 C43.5375184,27.128813 43.5316729,27.192878 43.5657719,27.2380813 C43.5872055,27.2673496 43.6213046,27.283935 43.6557283,27.283935 C43.674564,27.283935 43.6933996,27.2793821 43.7109362,27.2686504 C45.348663,26.3330407 46.8402511,25.0777561 48.0275461,23.608813 L48.0346907,23.6010081 C48.0346907,23.6006829 48.0350154,23.6000325 48.0353402,23.6000325 C48.040861,23.5935285 48.046057,23.5870244 48.0515778,23.5801951 C48.0522273,23.5788943 48.0528768,23.5775935 48.0532016,23.5762927 C48.0622947,23.5629593 48.0700887,23.5483252 48.0759343,23.5336911 C48.0759343,23.5336911 48.0759343,23.5330407 48.076259,23.5330407 C48.0821046,23.5180813 48.0863263,23.5021463 48.0889244,23.485561 M40.0720848,16.1691382 C39.4696689,15.6715772 38.7932095,15.3089756 38.0829758,15.0803577 C37.903063,14.1967805 37.6546273,13.3232846 37.3314986,12.4719024 C38.4372808,13.6000325 39.347562,14.847187 40.0720848,16.1691382" id="Fill-6" fill="#D41318"></path>
                <path d="M21.8833806,15.0464715 C21.8837053,15.0461463 21.8837053,15.0454959 21.8843549,15.0454959 L21.8931232,15.0341138 L21.8937727,15.0341138 C21.9470321,14.9635447 22.031143,14.9167154 22.1266202,14.9154146 C22.1243469,14.9154146 22.1227232,14.9150894 22.1204499,14.9150894 C21.9570994,14.9150894 21.7995945,14.9622439 21.6618994,15.052 L6.79180832,27.5150894 C8.88743604,27.9089106 9.17646574,28.9967154 11.4562281,29.0012683 L21.8833806,15.0464715 Z" id="Fill-8" fill="#FFDC00"></path>
                <path d="M23.8341038,21.8220488 L23.8383255,21.8155447 L23.8396246,21.8152195 C23.8925592,21.7459512 23.9747216,21.7000976 24.0679255,21.6981463 C24.0604562,21.6981463 24.0523374,21.6968455 24.0445434,21.6968455 C23.8746978,21.6968455 23.7110226,21.7475772 23.5704048,21.8435122 C23.5197434,21.8854634 23.4817473,21.9166829 23.4596642,21.9345691 L13.6842899,30.1618862 C15.234983,30.5166829 15.5594107,31.3329431 17.2974859,31.3748943 L23.8250107,21.8353821 C23.8279335,21.8308293 23.8308562,21.8266016 23.8341038,21.8220488" id="Fill-10" fill="#FFDC00"></path>
                <path d="M25.4735842,27.6134634 L25.4768317,27.6089106 L25.4784554,27.6076098 C25.5261941,27.5448455 25.5976396,27.5022439 25.6801267,27.4934634 L25.6856475,27.4902114 C25.5102812,27.4915122 25.3430337,27.5461463 25.2007921,27.6489106 L19.3815525,32.5721626 C20.440895,32.8173659 20.6776396,33.371187 21.842202,33.414439 L25.456697,27.6401301 C25.4622178,27.6313496 25.4674139,27.6215935 25.4735842,27.6134634" id="Fill-12" fill="#FFDC00"></path>
                <g id="Group-16" stroke-width="1" transform="translate(0.000000, 2.931707)">
                    <mask id="mask-4" fill="white">
                        <use xlink:href="#path-3"></use>
                    </mask>
                    <g id="Clip-15"></g>
                    <path d="M23.3323937,0.241658537 C23.3853283,0.171414634 23.4681402,0.125235772 23.5623184,0.122634146 C23.5606947,0.122634146 23.5593956,0.12198374 23.5577719,0.12198374 C23.3940966,0.12198374 23.2362669,0.169463415 23.0992214,0.259219512 L-9.74257426e-05,21.7675122 C2.10007683,22.1626341 2.3852095,23.2546667 4.67796198,23.2546667 L23.3320689,0.241333333 L23.3323937,0.241658537 Z" id="Fill-14" fill="#FFDC00" mask="url(#mask-4)"></path>
                </g>
                <path d="M27.0090139,32.1593496 C26.8047446,32.1593496 26.6076198,32.2331707 26.4540119,32.3684553 C26.4338772,32.3860163 24.0748752,34.4263415 24.0748752,34.4263415 C24.0768238,34.4263415 24.0787723,34.4269919 24.0813703,34.4276423 L24.0748752,34.4331707 C24.7961505,34.6003252 24.9614495,34.9756098 25.7476752,35.0094309 L25.748,35.0094309 C25.7525465,35.0094309 25.7567683,35.0094309 25.7609901,35.0100813 L26.7751921,32.3580488 C26.7761663,32.356748 26.7768158,32.3557724 26.7774653,32.3544715 C26.8200079,32.2426016 26.9278257,32.1626016 27.054804,32.1626016 C27.0583762,32.1626016 27.062598,32.163252 27.066495,32.1639024 L27.0687683,32.1613008 C27.0489584,32.16 27.0291485,32.1593496 27.0090139,32.1593496" id="Fill-17" fill="#FFDC00"></path>
            </g>
        </g>
    </g>
</svg>