<?xml version="1.0" encoding="utf-8"?>
<!-- Generator: Adobe Illustrator 22.1.0, SVG Export Plug-In . SVG Version: 6.00 Build 0)  -->
<svg version="1.1" id="Capa_2_1_" xmlns="http://www.w3.org/2000/svg" xmlns:xlink="http://www.w3.org/1999/xlink" x="0px" y="0px"
	 viewBox="0 0 375.5 132" style="enable-background:new 0 0 375.5 132;" xml:space="preserve">
<style type="text/css">
	.st0{fill:#003399;}
	.st1{fill:#A3AED5;}
	.st2{fill:#FFFFFF;}
	.st3{fill:#FECC00;}
</style>
<g>
	<path class="st0" d="M17.6,66.3c1.8,1.5,2.7,3.8,2.7,6.9s-0.9,5.4-2.7,6.9c-1.8,1.4-4.6,2.2-8.4,2.2H4.6v7.5H0.3V64.1h8.8
		C13,64.1,15.8,64.8,17.6,66.3z M14.5,76.9c0.9-0.9,1.3-2.3,1.3-4.1c0-1.8-0.6-3-1.7-3.8c-1.1-0.7-2.8-1.1-5.2-1.1H4.5v10.3h5
		C12,78.3,13.7,77.9,14.5,76.9z"/>
	<path class="st0" d="M46.2,86.2c-2.6,2.5-5.8,3.8-9.7,3.8c-3.8,0-7-1.3-9.6-3.8S23,80.5,23,76.7s1.3-7,3.9-9.5
		c2.6-2.5,5.8-3.8,9.6-3.8c3.8,0,7,1.3,9.7,3.8c2.6,2.5,3.9,5.7,3.9,9.5S48.8,83.7,46.2,86.2z M43.1,70.1c-1.8-1.8-3.9-2.7-6.5-2.7
		s-4.7,0.9-6.5,2.7c-1.8,1.8-2.6,4-2.6,6.6s0.9,4.8,2.6,6.6c1.8,1.8,3.9,2.7,6.5,2.7s4.7-0.9,6.5-2.7c1.8-1.8,2.6-4,2.6-6.6
		C45.7,74.2,44.8,72,43.1,70.1z"/>
	<path class="st0" d="M66.7,85.9c1.5,0,2.8-0.2,3.9-0.8c1.1-0.5,2.2-1.3,3.4-2.4l2.8,2.9c-2.7,3-6,4.5-9.9,4.5
		c-3.9,0-7.1-1.3-9.7-3.8s-3.9-5.7-3.9-9.5s1.3-7,3.9-9.6s5.9-3.8,9.9-3.8s7.3,1.5,10,4.4l-2.8,3c-1.2-1.2-2.4-2-3.5-2.5
		c-1.1-0.5-2.4-0.7-3.8-0.7c-2.6,0-4.8,0.8-6.6,2.5c-1.8,1.7-2.7,3.8-2.7,6.4s0.9,4.8,2.6,6.6C62.2,85,64.2,85.9,66.7,85.9z"/>
	<path class="st0" d="M91,68v21.8h-4.3V68h-7.8v-4h20v4H91z"/>
	<path class="st0" d="M120.9,64.1v4.1h-13.7V75h12.3v3.9h-12.3v6.9h14.2v4.1h-18.5V64.1H120.9z"/>
	<path class="st0" d="M130.5,68.1v7.1h11.4v4h-11.4v10.6h-4.3V64.1h17.2v4.1L130.5,68.1L130.5,68.1z"/>
	<path class="st0" d="M151.3,83.9l-2.6,5.9h-4.6l11.3-25.7h4.6l11.3,25.7h-4.6l-2.6-5.9H151.3z M162.4,79.9l-4.7-10.6L153,79.9
		H162.4z"/>
	<path class="st0" d="M217.3,28c0,10.3,7.3,16.2,15.5,16.2c5.3,0,8.4-2.2,11.4-5.7v1.7c0,6.2-3.2,9.5-9.9,9.5
		c-4.6,0-8.2-1.2-11.8-3.2l-3.4,7.4c4.4,2.3,9.7,3.6,15.4,3.6c6.8,0,11.8-1.4,15-4.7c2.9-2.9,4.4-7.5,4.4-13.7v-6.9
		c-3.3-0.6-6.7-1.2-10.1-1.8c-1.1,3.3-4.2,5.5-8.1,5.5c-4.8,0-8.4-3.2-8.4-7.9c-3.2-0.4-6.5-0.8-9.8-1.2c0,0.3,0,0.6,0,1L217.3,28
		L217.3,28z"/>
	<path class="st0" d="M178.7,29.9c0,10.6,7.7,18,18.2,18c6.3,0,11-2.5,14.2-6.5l-5.6-5c-2.7,2.5-5.1,3.6-8.4,3.6
		c-4.4,0-7.5-2.3-8.5-6.8h24.1c0.1-0.9,0.1-1.8,0.1-2.6c0-1.4-0.1-2.8-0.3-4.2c-3.2-0.3-6.3-0.7-9.6-1c0.1,0.5,0.2,1,0.3,1.5h-14.9
		c0.2-1,0.4-1.9,0.8-2.7c-3.1-0.2-6.3-0.4-9.5-0.6c-0.6,1.9-1,4-1,6.1L178.7,29.9L178.7,29.9z"/>
	<path class="st0" d="M163.4,47.1V34.2c0-5.8,2-9.5,5.4-11.2c-5-0.2-10.1-0.4-15.2-0.6V47L163.4,47.1L163.4,47.1z"/>
	<path class="st0" d="M136.3,47.1V34.2c0-7,2.9-10.9,7.7-12c-5.6-0.1-11.3-0.2-17.1-0.2c-0.2,0-0.4,0-0.5,0v25L136.3,47.1
		L136.3,47.1z"/>
	<path class="st0" d="M84.9,29.9c0,10.6,7.7,18,18.2,18c6.3,0,11-2.5,14.2-6.5l-5.6-5c-2.7,2.5-5.1,3.6-8.4,3.6
		c-4.4,0-7.5-2.3-8.5-6.8H119c0.1-0.9,0.1-1.8,0.1-2.6c0-2.9-0.5-5.8-1.5-8.4c-3.3,0-6.6,0.1-9.9,0.2c0.9,1.2,1.5,2.8,1.7,4.7H94.5
		c0.3-1.7,0.9-3.2,1.7-4.3c-3.4,0.1-6.8,0.2-10.2,0.4C85.3,25.3,84.8,27.6,84.9,29.9L84.9,29.9L84.9,29.9z"/>
	<path class="st0" d="M71.4,47.7c3.3,0,5.7-0.8,7.8-2v-7.9c-1.4,0.8-3,1.2-4.9,1.2c-2.2,0-3.2-1.1-3.2-3.4V23.8
		c-3.3,0.2-6.6,0.5-9.9,0.7v12.7C61.3,45.3,65.4,47.7,71.4,47.7"/>
	<path class="st0" d="M42.5,27.9v3.4v14.5v1.3h9.9V29.9v-0.1c0-1.5-0.2-3-0.5-4.4c-3.2,0.3-6.4,0.6-9.5,0.9
		C42.5,26.8,42.5,27.3,42.5,27.9"/>
	<path class="st0" d="M18.8,29.9v17.2h9.9v-1.3V31.3v-3.4v-0.1c-3.3,0.4-6.6,0.9-9.9,1.4c0,0.2,0,0.4,0,0.5V29.9L18.8,29.9z"/>
	<path class="st0" d="M10,47.1V30.6c-3.4,0.6-6.8,1.2-10,1.8v14.7H10z"/>
	<path class="st1" d="M244,12.3v4.5c-2.7-2.9-5.8-5.2-11.2-5.2c-7.7,0-15,5.5-15.4,15.3c3.3,0.4,6.6,0.8,9.8,1.2V28v-0.1
		c0-4.7,3.6-8.1,8.4-8.1s8.5,3.3,8.5,8.1V28c0,0.9-0.1,1.8-0.4,2.6c3.5,0.6,6.9,1.2,10.1,1.8V12.3H244z"/>
	<path class="st1" d="M195.9,11.6c-8,0-14,5-16.2,12c3.2,0.2,6.4,0.4,9.5,0.6c1.2-2.9,3.6-4.7,6.8-4.7c3.6,0,6.1,2.3,7,5.9
		c3.2,0.3,6.4,0.6,9.6,1C211.2,18.3,205.8,11.6,195.9,11.6z"/>
	<path class="st1" d="M163.4,19.3v-7h-9.9v10.2c5.1,0.1,10.2,0.3,15.2,0.6c1.5-0.7,3.2-1.1,5.2-1.1h0.5V11.6
		C168.7,11.4,165.4,14.5,163.4,19.3z"/>
	<path class="st1" d="M136.3,19.3v-7h-9.9v9.8c0.2,0,0.4,0,0.5,0c5.7,0,11.4,0.1,17.1,0.2c0.9-0.2,1.8-0.3,2.9-0.3h0.5V11.6
		C141.5,11.4,138.3,14.5,136.3,19.3z"/>
	<path class="st1" d="M102.1,11.6c-7.7,0-13.6,4.7-16,11.4c3.4-0.2,6.8-0.3,10.2-0.4c1.3-1.9,3.3-3.1,5.9-3.1c2.4,0,4.3,1,5.6,2.7
		c3.3-0.1,6.6-0.1,9.9-0.2C115.3,16.1,110.3,11.6,102.1,11.6z"/>
	<path class="st1" d="M71.1,3.4h-9.9v8.9H57v8.4h4.2v3.8c3.3-0.3,6.5-0.5,9.9-0.7v-3.1h8.2v-8.4h-8.2V3.4z"/>
	<path class="st1" d="M43.1,13.6c-2.1-1.1-4.6-2-7.5-2c-2.8,0-5.3,0.9-7.5,2c-5.8,3-9.1,8.9-9.3,15.6c3.2-0.5,6.5-0.9,9.9-1.4
		c0-3.4,1.1-5.6,4.1-7.1c0.7-0.3,2.1-0.6,2.8-0.6c0.7,0,2.2,0.3,2.8,0.6c2.5,1.2,3.6,3,4,5.5c3.1-0.3,6.3-0.6,9.5-0.9
		C50.8,20.3,47.8,16,43.1,13.6z"/>
	<path class="st1" d="M0,32.3c3.2-0.6,6.6-1.2,10-1.8v-29H0V32.3z"/>
	<rect x="278.5" class="st2" width="97" height="65.7"/>
	<rect x="280.1" y="1.6" class="st0" width="93.9" height="62.6"/>
	<polygon class="st3" points="325,15.3 327,13.8 329,15.3 328.2,12.9 330.2,11.5 327.8,11.5 327,9.1 326.2,11.5 323.8,11.5 
		325.8,12.9 	"/>
	<polygon class="st3" points="314.8,18 316.8,16.6 318.7,18 318,15.7 320,14.2 317.5,14.2 316.8,11.9 316,14.2 313.5,14.2 
		315.5,15.7 	"/>
	<polygon class="st3" points="309.3,19.4 308.5,21.7 306.1,21.7 308.1,23.2 307.3,25.5 309.3,24.1 311.3,25.5 310.5,23.2 
		312.5,21.7 310,21.7 	"/>
	<polygon class="st3" points="306.5,34.3 308.5,35.8 307.8,33.4 309.8,32 307.3,32 306.5,29.6 305.8,32 303.3,32 305.3,33.4 
		304.6,35.8 	"/>
	<polygon class="st3" points="310,42.2 309.3,39.9 308.5,42.2 306.1,42.2 308.1,43.7 307.3,46 309.3,44.6 311.3,46 310.5,43.7 
		312.5,42.2 	"/>
	<polygon class="st3" points="317.5,49.7 316.8,47.4 316,49.7 313.6,49.7 315.6,51.2 314.8,53.5 316.8,52.1 318.8,53.5 318,51.2 
		320,49.7 	"/>
	<polygon class="st3" points="327.8,52.4 327,50.1 326.2,52.4 323.8,52.4 325.8,53.9 325,56.2 327,54.8 329,56.2 328.2,53.9 
		330.2,52.4 	"/>
	<polygon class="st3" points="338,49.7 337.2,47.4 336.5,49.7 334,49.7 336,51.2 335.2,53.5 337.2,52.1 339.2,53.5 338.4,51.2 
		340.5,49.7 	"/>
	<polygon class="st3" points="345.5,42.2 344.7,39.9 344,42.2 341.5,42.2 343.5,43.7 342.7,46 344.7,44.6 346.7,46 346,43.7 
		348,42.2 	"/>
	<polygon class="st3" points="350.7,31.9 348.2,31.9 347.4,29.6 346.7,31.9 344.2,31.9 346.2,33.4 345.5,35.7 347.4,34.3 
		349.4,35.7 348.7,33.4 	"/>
	<polygon class="st3" points="342.7,25.5 344.7,24 346.7,25.5 346,23.2 348,21.7 345.5,21.7 344.7,19.4 344,21.7 341.5,21.7 
		343.5,23.2 	"/>
	<polygon class="st3" points="337.2,11.9 336.5,14.2 334,14.2 336,15.7 335.3,18 337.3,16.6 339.2,18 338.5,15.7 340.5,14.2 
		338,14.2 	"/>
	<path class="st0" d="M293.9,71.1h0.9v3.8c0,0.7-0.1,1.2-0.2,1.6s-0.4,0.7-0.8,0.9c-0.4,0.2-0.9,0.4-1.5,0.4s-1.1-0.1-1.5-0.3
		c-0.4-0.2-0.7-0.5-0.8-0.9c-0.2-0.4-0.2-0.9-0.2-1.6v-3.8h0.9V75c0,0.6,0,1,0.1,1.2c0.1,0.3,0.3,0.5,0.5,0.6
		c0.3,0.2,0.6,0.2,0.9,0.2c0.6,0,1.1-0.1,1.3-0.4c0.3-0.3,0.4-0.8,0.4-1.7L293.9,71.1L293.9,71.1z"/>
	<polygon class="st0" points="296.2,77.6 296.2,71.1 297.1,71.1 300.5,76.2 300.5,71.1 301.3,71.1 301.3,77.6 300.4,77.6 297,72.5 
		297,77.6 	"/>
	<rect x="302.9" y="71.1" class="st0" width="0.8" height="6.5"/>
	<path class="st0" d="M305,74.4c0-1.1,0.3-1.9,0.9-2.6c0.6-0.6,1.3-0.9,2.2-0.9c0.6,0,1.1,0.1,1.6,0.4s0.8,0.7,1.1,1.2
		c0.3,0.5,0.4,1.1,0.4,1.7c0,0.7-0.1,1.3-0.4,1.8s-0.6,0.9-1.1,1.2c-0.5,0.3-1,0.4-1.6,0.4s-1.2-0.1-1.6-0.5
		c-0.5-0.3-0.8-0.7-1.1-1.2C305.1,75.5,305,75,305,74.4 M305.9,74.4c0,0.8,0.2,1.4,0.6,1.9c0.4,0.4,1,0.7,1.6,0.7s1.2-0.2,1.6-0.7
		s0.6-1.1,0.6-1.9c0-0.5-0.1-1-0.3-1.4c-0.2-0.4-0.4-0.7-0.8-0.9c-0.3-0.2-0.7-0.3-1.1-0.3c-0.6,0-1.1,0.2-1.6,0.6
		C306.1,72.7,305.9,73.5,305.9,74.4 M307.5,70.7l0.6-1.2h1l-1,1.2H307.5z"/>
	<polygon class="st0" points="312.3,77.6 312.3,71.1 313.1,71.1 316.5,76.2 316.5,71.1 317.4,71.1 317.4,77.6 316.5,77.6 
		313.1,72.5 313.1,77.6 	"/>
	<polygon class="st0" points="321.3,77.6 321.3,71.1 326,71.1 326,71.8 322.2,71.8 322.2,73.8 325.8,73.8 325.8,74.6 322.2,74.6 
		322.2,76.8 326.2,76.8 326.2,77.6 	"/>
	<path class="st0" d="M331.6,71.1h0.9v3.8c0,0.7-0.1,1.2-0.2,1.6s-0.4,0.7-0.8,0.9c-0.4,0.2-0.9,0.4-1.5,0.4s-1.1-0.1-1.5-0.3
		c-0.4-0.2-0.7-0.5-0.8-0.9c-0.2-0.4-0.2-0.9-0.2-1.6v-3.8h0.9V75c0,0.6,0.1,1,0.2,1.2c0.1,0.3,0.3,0.5,0.5,0.6
		c0.3,0.2,0.6,0.2,0.9,0.2c0.6,0,1.1-0.1,1.3-0.4c0.3-0.3,0.4-0.8,0.4-1.7L331.6,71.1L331.6,71.1z"/>
	<path class="st0" d="M333.9,77.6v-6.5h2.9c0.6,0,1,0.1,1.3,0.2s0.5,0.3,0.7,0.6c0.2,0.3,0.3,0.6,0.3,1c0,0.5-0.2,0.9-0.4,1.2
		c-0.3,0.3-0.8,0.5-1.4,0.6c0.2,0.1,0.4,0.2,0.5,0.3c0.3,0.2,0.5,0.5,0.7,0.9l1.1,1.8h-1.1l-0.9-1.4c-0.3-0.4-0.5-0.7-0.6-0.9
		c-0.2-0.2-0.3-0.4-0.4-0.4c-0.1-0.1-0.3-0.1-0.4-0.2c-0.1,0-0.3,0-0.5,0h-1v2.9L333.9,77.6L333.9,77.6z M334.8,74h1.8
		c0.4,0,0.7,0,0.9-0.1c0.2-0.1,0.4-0.2,0.5-0.4c0.1-0.2,0.2-0.4,0.2-0.6c0-0.3-0.1-0.6-0.3-0.8c-0.2-0.2-0.6-0.3-1.1-0.3h-2V74z"/>
	<path class="st0" d="M340.2,74.4c0-1.1,0.3-1.9,0.9-2.6c0.6-0.6,1.3-0.9,2.2-0.9c0.6,0,1.1,0.1,1.6,0.4s0.9,0.7,1.1,1.2
		c0.3,0.5,0.4,1.1,0.4,1.8c0,0.7-0.1,1.3-0.4,1.8s-0.6,0.9-1.1,1.2c-0.5,0.3-1,0.4-1.6,0.4s-1.2-0.1-1.6-0.5
		c-0.5-0.3-0.8-0.7-1.1-1.2C340.3,75.5,340.2,75,340.2,74.4 M341,74.4c0,0.8,0.2,1.4,0.6,1.9c0.4,0.4,0.9,0.7,1.6,0.7
		s1.2-0.2,1.6-0.7s0.6-1.1,0.6-1.9c0-0.5-0.1-1-0.3-1.4c-0.2-0.4-0.4-0.7-0.8-0.9c-0.3-0.2-0.7-0.3-1.2-0.3c-0.6,0-1.1,0.2-1.6,0.6
		C341.3,72.7,341,73.5,341,74.4"/>
	<path class="st0" d="M347.5,77.6v-6.5h2.4c0.4,0,0.8,0,1,0.1c0.3,0.1,0.6,0.2,0.8,0.3c0.2,0.1,0.4,0.4,0.5,0.6
		c0.1,0.3,0.2,0.6,0.2,0.9c0,0.6-0.2,1-0.5,1.4s-1,0.6-1.9,0.6h-1.7v2.7L347.5,77.6L347.5,77.6z M348.3,74.2h1.7
		c0.6,0,0.9-0.1,1.2-0.3c0.2-0.2,0.4-0.5,0.4-0.9c0-0.3-0.1-0.5-0.2-0.7s-0.3-0.3-0.5-0.4c-0.1,0-0.4-0.1-0.8-0.1h-1.7v2.4H348.3z"
		/>
	<polygon class="st0" points="353.5,77.6 353.5,71.1 358.2,71.1 358.2,71.8 354.4,71.8 354.4,73.8 357.9,73.8 357.9,74.6 
		354.4,74.6 354.4,76.8 358.3,76.8 358.3,77.6 	"/>
	<path class="st0" d="M358.8,77.6l2.5-6.5h0.9l2.6,6.5h-1l-0.8-2h-2.7l-0.7,2H358.8z M360.7,74.9h2.2l-0.7-1.8
		c-0.2-0.5-0.4-1-0.5-1.4c-0.1,0.4-0.2,0.8-0.4,1.3L360.7,74.9z"/>
	<path class="st0" d="M284.3,83.2h0.9V87c0,0.7-0.1,1.2-0.2,1.6c-0.2,0.4-0.4,0.7-0.8,0.9c-0.4,0.2-0.9,0.4-1.5,0.4
		s-1.1-0.1-1.5-0.3c-0.4-0.2-0.7-0.5-0.8-0.9c-0.2-0.4-0.3-0.9-0.3-1.6v-3.8h0.9v3.8c0,0.6,0.1,1,0.2,1.3s0.3,0.5,0.5,0.6
		c0.3,0.1,0.6,0.2,0.9,0.2c0.6,0,1.1-0.1,1.3-0.4c0.3-0.3,0.4-0.8,0.4-1.7V83.2z"/>
	<polygon class="st0" points="286.6,89.8 286.6,83.2 287.5,83.2 290.9,88.4 290.9,83.2 291.7,83.2 291.7,89.8 290.8,89.8 
		287.4,84.7 287.4,89.8 	"/>
	<rect x="293.3" y="83.2" class="st0" width="0.9" height="6.5"/>
	<path class="st0" d="M295.4,86.6c0-1.1,0.3-1.9,0.9-2.5s1.3-0.9,2.2-0.9c0.6,0,1.1,0.2,1.6,0.4c0.5,0.3,0.8,0.7,1.1,1.2
		c0.3,0.5,0.4,1.1,0.4,1.8c0,0.7-0.1,1.3-0.4,1.8s-0.6,0.9-1.1,1.2c-0.5,0.3-1,0.4-1.6,0.4s-1.2-0.1-1.6-0.4
		c-0.5-0.3-0.8-0.7-1.1-1.2C295.5,87.7,295.4,87.2,295.4,86.6 M296.3,86.6c0,0.8,0.2,1.4,0.6,1.9s0.9,0.7,1.6,0.7
		c0.6,0,1.2-0.2,1.6-0.7s0.6-1.1,0.6-1.9c0-0.5-0.1-1-0.3-1.4c-0.2-0.4-0.4-0.7-0.8-0.9c-0.4-0.2-0.7-0.3-1.2-0.3
		c-0.6,0-1.1,0.2-1.6,0.6C296.5,84.9,296.3,85.6,296.3,86.6"/>
	<polygon class="st0" points="302.7,89.8 302.7,83.2 303.6,83.2 307,88.4 307,83.2 307.8,83.2 307.8,89.8 306.9,89.8 303.5,84.7 
		303.5,89.8 	"/>
	<polygon class="st0" points="311.8,89.8 311.8,83.2 316.5,83.2 316.5,84 312.6,84 312.6,86 316.2,86 316.2,86.8 312.6,86.8 
		312.6,89 316.6,89 316.6,89.8 	"/>
	<path class="st0" d="M322,83.2h0.8V87c0,0.7-0.1,1.2-0.2,1.6c-0.2,0.4-0.4,0.7-0.8,0.9c-0.4,0.2-0.9,0.4-1.5,0.4s-1.1-0.1-1.5-0.3
		c-0.4-0.2-0.7-0.5-0.8-0.9c-0.2-0.4-0.2-0.9-0.2-1.6v-3.8h0.9v3.8c0,0.6,0,1,0.2,1.3c0.1,0.3,0.3,0.5,0.5,0.6
		c0.3,0.1,0.6,0.2,0.9,0.2c0.6,0,1.1-0.1,1.3-0.4c0.3-0.3,0.4-0.8,0.4-1.7L322,83.2L322,83.2z"/>
	<path class="st0" d="M324.3,89.8v-6.5h2.9c0.6,0,1,0.1,1.3,0.2s0.5,0.3,0.7,0.6c0.2,0.3,0.3,0.6,0.3,1c0,0.5-0.2,0.8-0.4,1.2
		c-0.3,0.3-0.8,0.5-1.4,0.6c0.2,0.1,0.4,0.2,0.5,0.3c0.2,0.2,0.5,0.5,0.7,0.9l1.1,1.8h-1.1l-0.9-1.4c-0.3-0.4-0.5-0.7-0.6-0.9
		c-0.2-0.2-0.3-0.3-0.4-0.4s-0.3-0.1-0.4-0.2c-0.1,0-0.3,0-0.5,0h-1v2.9L324.3,89.8L324.3,89.8z M325.2,86.1h1.8
		c0.4,0,0.7,0,0.9-0.1c0.2-0.1,0.4-0.2,0.5-0.4c0.1-0.2,0.2-0.4,0.2-0.6c0-0.3-0.1-0.6-0.3-0.8c-0.2-0.2-0.6-0.3-1.1-0.3h-2V86.1z"
		/>
	<path class="st0" d="M330.6,86.6c0-1.1,0.3-1.9,0.9-2.5s1.3-0.9,2.2-0.9c0.6,0,1.1,0.2,1.6,0.4c0.5,0.3,0.8,0.7,1.1,1.2
		c0.2,0.5,0.4,1.1,0.4,1.8c0,0.7-0.1,1.3-0.4,1.8s-0.6,0.9-1.1,1.2c-0.5,0.3-1,0.4-1.6,0.4s-1.2-0.1-1.6-0.4
		c-0.5-0.3-0.9-0.7-1.1-1.2C330.7,87.7,330.6,87.2,330.6,86.6 M331.5,86.6c0,0.8,0.2,1.4,0.6,1.9s0.9,0.7,1.6,0.7
		c0.6,0,1.2-0.2,1.6-0.7s0.6-1.1,0.6-1.9c0-0.5-0.1-1-0.3-1.4c-0.2-0.4-0.4-0.7-0.8-0.9c-0.3-0.2-0.7-0.3-1.2-0.3
		c-0.6,0-1.1,0.2-1.6,0.6C331.7,84.9,331.5,85.6,331.5,86.6"/>
	<path class="st0" d="M337.9,89.8v-6.5h2.4c0.4,0,0.8,0,1,0.1c0.3,0.1,0.6,0.2,0.8,0.3c0.2,0.2,0.4,0.4,0.5,0.6
		c0.1,0.3,0.2,0.6,0.2,0.9c0,0.6-0.2,1-0.5,1.4c-0.4,0.4-1,0.6-1.9,0.6h-1.7v2.7L337.9,89.8L337.9,89.8z M338.8,86.3h1.7
		c0.5,0,0.9-0.1,1.2-0.3c0.2-0.2,0.3-0.5,0.3-0.9c0-0.3-0.1-0.5-0.2-0.7s-0.3-0.3-0.5-0.4c-0.1,0-0.4-0.1-0.8-0.1h-1.7V86.3z"/>
	<path class="st0" d="M343.9,89.8v-6.5h4.7v0.8h-3.8v2h3.6v0.8h-3.6v2.2h4v0.8h-4.9V89.8z M345.7,82.8l0.6-1.2h1l-1,1.2H345.7z"/>
	<polygon class="st0" points="350,89.8 350,83.2 354.7,83.2 354.7,84 350.8,84 350.8,86 354.4,86 354.4,86.8 350.8,86.8 350.8,89 
		354.8,89 354.8,89.8 	"/>
	<polygon class="st0" points="356,89.8 356,83.2 356.9,83.2 360.3,88.4 360.3,83.2 361.1,83.2 361.1,89.8 360.2,89.8 356.8,84.7 
		356.8,89.8 	"/>
	<polygon class="st0" points="362.5,89.8 362.5,83.2 363.4,83.2 366.8,88.4 366.8,83.2 367.6,83.2 367.6,89.8 366.7,89.8 
		363.4,84.7 363.4,89.8 	"/>
	<polygon class="st0" points="369.1,89.8 369.1,83.2 373.8,83.2 373.8,84 369.9,84 369.9,86 373.5,86 373.5,86.8 369.9,86.8 
		369.9,89 373.9,89 373.9,89.8 	"/>
</g>
<g>
	<path class="st3" d="M0.2,106.3h3.6v22.1h13.6v3.1H0.2V106.3z"/>
	<path class="st3" d="M20.4,106.3H24v25.2h-3.6V106.3z"/>
	<path class="st3" d="M51.9,106.3v25.2h-3l-15.1-18.8v18.8h-3.6v-25.2h3l15.1,18.8v-18.8H51.9z"/>
	<path class="st3" d="M75.7,118.7h3.5v9.8c-1.2,1-2.7,1.8-4.4,2.4c-1.7,0.6-3.4,0.8-5.2,0.8c-2.5,0-4.8-0.6-6.9-1.7
		c-2-1.1-3.6-2.7-4.8-4.6s-1.7-4.2-1.7-6.6c0-2.4,0.6-4.7,1.7-6.6s2.8-3.5,4.8-4.6c2.1-1.1,4.4-1.7,6.9-1.7c2,0,3.8,0.3,5.5,1
		s3,1.6,4.2,2.9l-2.2,2.2c-2-1.9-4.5-2.9-7.3-2.9c-1.9,0-3.6,0.4-5.2,1.2c-1.5,0.8-2.7,2-3.6,3.5s-1.3,3.1-1.3,5
		c0,1.8,0.4,3.5,1.3,4.9c0.9,1.5,2.1,2.6,3.6,3.5c1.5,0.8,3.2,1.3,5.1,1.3c2.3,0,4.2-0.5,5.9-1.6L75.7,118.7L75.7,118.7z"/>
	<path class="st3" d="M87.4,128.9c-1.9-1.9-2.8-4.7-2.8-8.3v-14.3h3.6v14.2c0,5.4,2.4,8.1,7.1,8.1c2.3,0,4.1-0.7,5.3-2
		s1.8-3.4,1.8-6.1v-14.2h3.5v14.3c0,3.6-0.9,6.4-2.8,8.3s-4.5,2.9-7.8,2.9S89.2,130.8,87.4,128.9z"/>
	<path class="st3" d="M127.5,125.2h-13.4l-2.8,6.3h-3.7l11.4-25.2h3.6l11.4,25.2h-3.8L127.5,125.2z M126.2,122.3l-5.4-12.3
		l-5.4,12.3H126.2z"/>
	<path class="st3" d="M140.3,109.4h-8.6v-3.1h20.8v3.1h-8.6v22.1h-3.6L140.3,109.4L140.3,109.4z"/>
	<path class="st3" d="M173.4,128.4v3.1h-18.3v-25.2h17.8v3.1h-14.2v7.7h12.6v3.1h-12.6v8.1L173.4,128.4L173.4,128.4z"/>
	<path class="st3" d="M182.3,130.1c-2-1.1-3.6-2.7-4.8-4.6s-1.7-4.2-1.7-6.6c0-2.4,0.6-4.7,1.7-6.6s2.7-3.5,4.8-4.6
		c2-1.1,4.3-1.7,6.8-1.7c2,0,3.8,0.3,5.4,1c1.6,0.7,3,1.6,4.2,2.9l-2.3,2.3c-1.9-2-4.3-3-7.1-3c-1.9,0-3.6,0.4-5.1,1.3
		c-1.5,0.8-2.7,2-3.5,3.5c-0.9,1.5-1.3,3.1-1.3,5s0.4,3.5,1.3,4.9c0.9,1.5,2,2.6,3.5,3.5c1.5,0.8,3.2,1.3,5.1,1.3c2.8,0,5.2-1,7.1-3
		l2.3,2.3c-1.2,1.3-2.6,2.3-4.2,3s-3.5,1-5.4,1C186.6,131.8,184.4,131.2,182.3,130.1z"/>
</g>
</svg>
