<?xml version="1.0" encoding="utf-8"?>
<!-- Generator: Adobe Illustrator 22.1.0, SVG Export Plug-In . SVG Version: 6.00 Build 0)  -->
<svg version="1.1" id="Capa_1" xmlns="http://www.w3.org/2000/svg" xmlns:xlink="http://www.w3.org/1999/xlink" x="0px" y="0px"
	 viewBox="0 0 298.2 67.1" style="enable-background:new 0 0 298.2 67.1;" xml:space="preserve">
<style type="text/css">
	.st0{fill:#F1D011;}
	.st1{fill:#D7292A;}
	.st2{fill:#1A1414;}
</style>
<title>Mesa de trabajo 11-1</title>
<rect y="0.4" class="st0" width="65.8" height="65.8"/>
<path class="st1" d="M65.8,12.9L50,16.1c-5.6,0.8-11.3,0.1-16.5-2.1c-3.2-1.9-6.8-3.2-10.4-3.8c-2.5-0.3-4.9-0.3-7.4,0L5.1,12
	c-1.7,0.3-3.4,0.6-5.1,0.9v-12c2.7-0.6,5.4-0.6,8.1-0.2C9.7,1,11,2,12.5,2.7c2.9,1.5,5.7,3.4,9,4.1c4.5,1.1,9.3,1.1,13.8-0.1
	l9.9-1.8L55.5,3l10.4-2.1V12.9"/>
<path class="st1" d="M13.8,51c6.7-1.6,13.8-0.8,20,2.1c5.2,3.1,11.4,4.2,17.4,3.2l14.7-2.7v12c-2.1,0.4-4.2,0.5-6.3,0.4
	c-1.1-0.1-2.3-0.4-3.3-0.8l-7.6-4c-4.7-2-9.8-2.6-14.8-1.7L2.1,65.2L0,65.5v-12l2.6-0.5l6.9-1.3C11,51.5,12.4,51.3,13.8,51z"/>
<path class="st1" d="M0,31.8v-9.2l27.2-5c6.5-0.8,13.2,0.4,19,3.4c5.5,2.7,11.8,3.4,17.8,2l1.9-0.4v9.2l-6-3.4
	c-4.5-2.1-9.4-2.8-14.3-2.1l-16.8,3.1l-6,1.1L7.6,33.2C5,33.7,2.3,33.2,0,31.8z"/>
<path class="st1" d="M65.8,35v9l-27,5c-6.6,0.8-13.2-0.4-19-3.4c-5.5-2.7-11.8-3.4-17.7-2L0,44v-9l6.2,3.3c4.5,2.1,9.4,2.8,14.3,2.1
	l16.7-3.1l6-1.1l15.3-2.9C61.1,33,63.7,33.6,65.8,35z"/>
<path class="st2" d="M78,60.1V42.7h2.8c5.9,0,9.2,3.1,9.2,8.8s-3.1,8.7-9.2,8.7H78 M71.4,37v29.2h9.8c9.9,0,15.7-5.6,15.7-14.8
	S90.9,37,80.8,37H71.4z"/>
<path class="st2" d="M151,51.6h-5.6c0,0,2.6-8.2,2.7-8.7C148.4,44.1,151,51.5,151,51.6 M144.5,37l-10.9,29.2h7.2l3.7-9.2h7.3
	l3.7,9.2h7.3l-11-29.2H144.5z"/>
<path class="st2" d="M97,15h-7.4v9.1c-0.9,0.3-1.8,0.4-2.7,0.4c-5,0-8.7-3.9-8.7-9.2c0-5.7,3.9-9.5,9.7-9.5c3,0,5.8,0.9,8.3,2.5V1.8
	C93.4,0.6,90.4,0,87.3,0c-9.5,0-16,6.4-16,15.5s6.4,15.1,16,15.1c3,0,7.8-0.9,9.6-2.7L97,15"/>
<path class="st2" d="M122.2,15.2c0,5.5-3.2,9.2-8.2,9.2s-8.3-3.7-8.3-9.2S109.1,6,114,6S122.3,9.7,122.2,15.2 M129.3,15.1
	C129.2,6.4,122.7,0,113.9,0c-8.6,0-15,6.4-15,15.1s6.4,15.1,15.2,15.1S129.2,23.9,129.3,15.1"/>
<path class="st2" d="M139,24.1v-7.3h3.7c1.8,0,4.6,0.8,4.6,3.5c0,2.4-0.9,3.8-4.6,3.8H139 M139,11.3V5.9h3.7c1.8,0,3.6,0.9,3.6,2.7
	s-1.8,2.8-3.6,2.8L139,11.3z M131.7,0.3v29.3h12.1c6.4,0,10.6-3.4,10.6-8.9c0-3.8-2.5-6.5-6.4-7.6c2.4-1,4-3.4,4-6
	c0.1-4.6-3.1-6.7-9.4-6.7L131.7,0.3z"/>
<rect x="156.8" y="0.4" class="st2" width="7.3" height="29.3"/>
<polygon class="st2" points="166.5,0.4 166.5,29.6 186.6,29.6 186.6,24.1 173.8,24.1 173.8,16.8 184.8,16.8 184.8,11.3 173.8,11.3 
	173.8,5.9 186.6,5.9 186.6,0.4 "/>
<path class="st2" d="M195.7,11.3V5.9h3.7c2.9,0,3.7,0.8,3.7,2.9s-0.9,2.6-3.7,2.6H195.7 M188.4,29.6h7.3V17.4h0.2
	c4.2,0,4.2,0.4,7.1,7.7c0.3,0.8,1.6,4.1,1.9,4.6h8.4c-1.6-1.8-3-4.5-5.6-10.4c-1.1-2.5-1.8-3.2-3.9-4.1c3.2-0.8,5.4-3.7,5.4-7
	c0-5.3-3.5-7.7-10.4-7.7h-10.3V29.6z"/>
<path class="st2" d="M212.2,0.4v29.3h7.3V11.3c1,2.1,1.6,3.2,1.6,3.2s0.5,0.7,1.3,2l1.1,1.8l7,11.2h7.3V0.4h-7.3V11
	c0,2.7,0.1,4.8,0.2,6.6c0,0.2,0,0.6,0.1,1.1c-1.2-2.2-2.6-4.3-4-6.3l-7.9-12L212.2,0.4"/>
<path class="st2" d="M261.6,15.1c0,5.5-2.4,9-7.3,9s-7.3-3.5-7.3-9s2.4-9.3,7.3-9.3S261.6,9.6,261.6,15.1 M269.8,15.1
	c0-8.7-6.5-15.1-15.3-15.1c-8.6,0-15,6.4-15,15.1s6.4,15.1,15.2,15.1S269.8,23.9,269.8,15.1"/>
<path class="st2" d="M261.8,51.7c0,5.5-2.4,9-7.3,9s-7.3-3.5-7.3-9s2.4-9.3,7.3-9.3S261.8,46.2,261.8,51.7 M270,51.6
	c0-8.7-6.5-15-15.3-15c-8.6,0-15,6.4-15,15.1s6.4,15.1,15.2,15.1C263.7,66.9,270,60.5,270,51.6"/>
<polygon class="st2" points="98.8,37 98.8,66.2 118.8,66.2 118.8,60.7 106.1,60.7 106.1,53.4 117.1,53.4 117.1,47.9 106.1,47.9 
	106.1,42.4 118.8,42.4 118.8,37 "/>
<path class="st2" d="M172,47.9v-5.5h3.7c2.8,0,3.7,0.8,3.7,2.9s-0.9,2.6-3.7,2.6H172 M164.7,66.2h7.3V54h0.2c4.2,0,4.2,0.4,7.1,7.7
	c0.3,0.8,1.6,4.1,1.9,4.6h8.4c-1.6-1.8-3-4.5-5.6-10.5c-1.1-2.5-1.8-3.2-3.9-4.1c3.2-0.8,5.4-3.7,5.4-7c0-5.2-3.5-7.7-10.4-7.7
	h-10.4L164.7,66.2z"/>
<path class="st2" d="M237.8,51.6h-7.3v9.1c-0.9,0.3-1.8,0.4-2.7,0.4c-5,0-8.7-3.9-8.7-9.2c0-5.7,3.9-9.5,9.7-9.5
	c3,0,5.8,0.9,8.3,2.5v-6.6c-2.8-1.2-5.8-1.7-8.9-1.8c-9.5,0-16,6.3-16,15.5s6.4,15,16,15c3,0,7.8-0.9,9.6-2.7V51.6"/>
<path class="st2" d="M272.6,37v29.2h7.3V47.9c1,2.1,1.6,3.2,1.6,3.2s0.5,0.8,1.3,2l1.1,1.8l7,11.2h7.3V37h-7.3v10.6
	c0,2.7,0.1,4.8,0.2,6.6c0,0.2,0,0.6,0.1,1c-1.2-2.2-2.5-4.3-4-6.3L279.2,37H272.6"/>
<path class="st2" d="M202.2,51.6h-5.6c0,0,2.6-8.2,2.7-8.7C199.6,44.1,202.2,51.5,202.2,51.6 M195.7,37l-10.9,29.2h7.2l3.7-9.2h7.3
	l3.7,9.2h7.3L203.1,37H195.7z"/>
</svg>
