<svg id="Group_213" data-name="Group 213" xmlns="http://www.w3.org/2000/svg" width="77.513" height="26.004" viewBox="0 0 77.513 26.004">
  <path id="Path_145" data-name="Path 145" d="M712.622,419.16c.759-1.518,4.931-10.747,8.47-10.769a.943.943,0,0,1,1.056.791,9.094,9.094,0,0,1-.115,3.519c-.419,2.612-1.107,5.164-1.7,7.736-.1.428-.908,3.047.382,2.084.284-.212.484.2.494.524a3.177,3.177,0,0,1-1.3,2.084c-.871.4-1.39.1-1.52-.845a11.131,11.131,0,0,1,.51-3.825,77.333,77.333,0,0,0,1.651-7.569c.041-.382.21-2.049-.154-2.139-1.271-.313-5.317,5.3-7.454,11.418-.177.51-.3,1.094-.988.979-.649-.109-.7-.673-.706-1.229-.113-9.306.345-11.891.545-13.049.085-.489.818-.836,1.213-1.084.261-.163.414.007.469.26a2.736,2.736,0,0,1-.071,1.222A43.93,43.93,0,0,0,712.622,419.16Z" transform="translate(-644.767 -400.156)" fill="#fff" fill-rule="evenodd"/>
  <g id="Group_212" data-name="Group 212" transform="translate(53.478)">
    <g id="Group_209" data-name="Group 209" transform="translate(0 7.945)">
      <g id="Group_208" data-name="Group 208">
        <path id="Path_146" data-name="Path 146" d="M706.877,411.861a.648.648,0,0,1,.024.647,8.572,8.572,0,0,1-1.941,1.888,16.908,16.908,0,0,1-.388,3.5,4.849,4.849,0,0,1-1.215,2.28c-2.019,2.068-4.846.4-4.867.388-1.094-.459-4.275-3.8-1.942-8.7,2.721-5.706,6.116-3.168,6.395-2.848a7.677,7.677,0,0,1,1.785,4.218,14.347,14.347,0,0,0,1.632-1.475C706.445,411.659,706.786,411.712,706.877,411.861Zm-4.039,7.169a9.23,9.23,0,0,0,1.028-4.19,6.175,6.175,0,0,1-2.013.307c-4.073,0-3.932-3.6-3.932-3.6s-2.616,6.005,1.709,8.515A2.54,2.54,0,0,0,702.838,419.031Zm-.311-4.917c1.01-.131,1.218-.339,1.218-.339s-.254-3.983-2.513-4.4c-2.51-.466-2.51,2.768-1.837,3.6A3.092,3.092,0,0,0,702.527,414.114Z" transform="translate(-695.712 -408.176)" fill="#fff"/>
      </g>
    </g>
    <g id="Group_211" data-name="Group 211" transform="translate(7.031)">
      <g id="Group_210" data-name="Group 210">
        <path id="Path_147" data-name="Path 147" d="M707.829,398.829a.736.736,0,0,1-.034.819,24.18,24.18,0,0,1-3.186,4.288c-.046.048-.285.34-.437.294-.295-.091.612-1.569,1.025-2.342.4-.751,1.013-1.639,1.442-2.37C706.794,399.254,707.377,398.323,707.829,398.829Z" transform="translate(-704.115 -398.681)" fill="#fff"/>
      </g>
    </g>
  </g>
  <path id="Path_148" data-name="Path 148" d="M692.019,417.984c-.512.068-.567.124-.656.066a2.971,2.971,0,0,0-4.772-1.2c-.686.71-.526,1.436.41,1.771a8.825,8.825,0,0,0,3.054.134c-.022-.01.018.682-1.119,1.061a5.164,5.164,0,0,1-6.752-4.241,5.692,5.692,0,0,1,3.33-5.336,2.277,2.277,0,0,1,2.725.44,2.368,2.368,0,0,1-.017,2.849c-.15.228-.295.459-.423.7a.35.35,0,0,0,.07.452c.144.132.3.087.457.014a3.582,3.582,0,0,0,1.514-3.888,2.774,2.774,0,0,0-2.818-1.977c-2.873.069-5.722,3.1-6.082,5.575a6.006,6.006,0,0,0,4.3,6.5,5.651,5.651,0,0,0,2.477.276,4.555,4.555,0,0,0,3.073-1.311,2.22,2.22,0,0,0,.607-1.137c.338-.037,1.017-.326,1.012-.5C692.408,418,692.168,417.964,692.019,417.984Zm-4.3-.218c-.166-.063-.366-.184-.38-.386-.009-.167.233-.332.4-.392a1.863,1.863,0,0,1,2.18.986A6.07,6.07,0,0,1,687.723,417.766Z" transform="translate(-639.814 -400.337)" fill="#fff" fill-rule="evenodd"/>
  <path id="Path_149" data-name="Path 149" d="M663.558,406.843c-1.086-.724-4.766-1.72-7.016,3.54-2.1,4.907,1.644,5.5,2.5,3.021.516-1.485-.63-2.043-1.441-1.782-.633.2-1.012,1.074-1.012,1.074l.19.493c1.478-1.745,1.845.254.9.443-1.368.274-1.138-2.844.91-5.424a3.658,3.658,0,0,1,4.057-1.138c4.488,2.175-.48,9.8-1.959,11.37-1.079,1.143-5.361,5.21-8.319,1.146-.536-.736-1.252-2-1.593-2.478a7.217,7.217,0,0,0-1.112-1.4c3.365-1.771,4.262-4.5,3.578-5.567-1.1-1.719-3.527-1.4-3.983-1.4a1.807,1.807,0,0,0-1.086.38c-.254.328-.207.682.505.682.02,0-.093,2.616-.225,5.5-1.137-.185-1.976,1.724-.052,1.155-.095,2.058-.191,4.094-.245,5.28-.046,1.012-.146,1,.213,1.112a.352.352,0,0,0,.493-.3c.057-.455.107-6.064.146-6.178s.745.539,1.365,1.5c0,0,1.96,3.454,3.034,4.046,2.022,1.113,5.639,1.356,9.608-4.888C667.244,410.37,664.469,407.45,663.558,406.843Zm-14.122,2.848c.127-.1,2.908-.455,3.161,1.038.481,2.842-3.414,4.6-3.414,4.6Z" transform="translate(-634.325 -399.918)" fill="#fff"/>
  <path id="Path_150" data-name="Path 150" d="M676.83,412.113c.628-.242,1.172-.451,1.2-1.264.005-.15.013-.284.019-.4.021-.4.032-.6-.079-.717a.264.264,0,0,0-.24-.074,4.346,4.346,0,0,0-.852.412c-.488.27-1.168.727-1.944,1.126-.287-1.551-.4-2.23-.523-2.947-.051-.3-.1-.594-.165-.96-.462-2.653-.632-2.935-.79-3.2-.427-.713-.644-1.012-.879-1.012-.335,0-.409.463-.621,1.835l-.028.184c-.49,3.142-1,5.945-1.515,8.331a3.761,3.761,0,0,0-.847.523,3.3,3.3,0,0,0-.291,1.335.177.177,0,0,0,.166.12l.066-.008.036-.023c.166-.1.33-.247.494-.341-.808,3.337-1.472,5.827-1.427,5.926.136.289.605,1.228.956,1.228a.236.236,0,0,0,.217-.138c.266-.547,1.316-5.9,1.788-7.757.236-.11.478-.221.736-.339.555-.252,1.212-.53,2.057-.873,1.136,6.006,2.632,11.275,2.795,11.707.094.253.343.609.6.609a.252.252,0,0,0,.2-.1c.079-.1.159-.336-.062-1.144-1.2-4.409-2.3-9.415-2.551-10.76l-.124-.655c.445-.177.935-.37,1.482-.582Zm-2.728-.489-1.088.549-.5.254q-.323.163-.623.306c.521-2.763.978-5.919,1.1-6.79a26.881,26.881,0,0,1,.871,4.247C673.938,410.668,674.017,411.148,674.1,411.623Z" transform="translate(-637.811 -399.399)" fill="#fff"/>
  <path id="Path_151" data-name="Path 151" d="M640.821,418.781s2.4-.632,2.175-1.012c-.254-.423-.683-1.289-.949-1.365-.182-.053-.708.265-1.807.531a81.161,81.161,0,0,1-2.213-8.457c-.188-1.176.341-1.973.19-2.389a3.078,3.078,0,0,0-.872-1.088c-.139.013-.417.38-.417.38s-.315-.582-.454-.406c-.38.481-.531.688-.709.923-.152.2.705,1.349.733,1.821.026.418-4.414,14.357-4.664,14.93-.215.494.8,1.366,1.226,1.633.393.243,1.9-4.842,1.9-4.842a21.662,21.662,0,0,0,4.7-.455s1.466,4.4,2.376,4.652c.394.109,1.02-.066.469-.974A25.407,25.407,0,0,1,640.821,418.781Zm-1.871-1.568c-1.252.3-3.571.54-3.489.253.1-.355,1.821-6.17,1.821-6.17C638.191,414.786,639.054,417.188,638.95,417.213Z" transform="translate(-631.803 -399.703)" fill="#fff"/>
</svg>
