<svg xmlns="http://www.w3.org/2000/svg" viewBox="0 0 433 80"><defs><style>.cls-1{fill:#f0f0f0;}.cls-2{fill:#fc565b;}.cls-3{fill:#fff;}</style></defs><title>Group 268</title><g id="Capa_2" data-name="Capa 2"><g id="Capa_1-2" data-name="Capa 1"><g id="Group_268" data-name="Group 268"><path id="Path_439" data-name="Path 439" class="cls-1" d="M50.47,62.42H433V0H0V62.42H15.54L33,80Z"/><g id="Group_261" data-name="Group 261"><rect id="Rectangle_253" data-name="Rectangle 253" class="cls-2" x="370.99" y="0.01" width="62" height="62"/><path id="search" class="cls-3" d="M416.29,48h0l-9.43-9.42a12.77,12.77,0,0,1-7.71,2.58,12.91,12.91,0,1,1,10.88-6c-.16.25-.34.5-.56.81l9.42,9.43-2.6,2.6ZM399.15,17.17A11.05,11.05,0,0,0,391.31,36h0l0,0h0a11,11,0,1,0,7.78-18.87Z"/></g></g></g></g></svg>