<?xml version="1.0" standalone="no"?>
<!DOCTYPE svg PUBLIC "-//W3C//DTD SVG 20010904//EN"
 "http://www.w3.org/TR/2001/REC-SVG-20010904/DTD/svg10.dtd">
<svg version="1.0" xmlns="http://www.w3.org/2000/svg"
 width="700.000000pt" height="700.000000pt" viewBox="0 0 700.000000 700.000000"
 preserveAspectRatio="xMidYMid meet">
<metadata>
Created by potrace 1.11, written by Peter Selinger 2001-2013
</metadata>
<g transform="translate(0.000000,700.000000) scale(0.100000,-0.100000)"
fill="#000000" stroke="none">
<path d="M0 3965 l0 -3035 598 0 597 0 464 -465 465 -465 464 465 465 465
1974 0 1973 0 0 3035 0 3035 -3500 0 -3500 0 0 -3035z m3880 2263 c8 -24 17
-47 21 -53 4 -5 14 -32 23 -59 21 -63 84 -235 96 -261 5 -11 32 -83 60 -160
28 -77 54 -147 57 -155 3 -8 7 -19 9 -25 1 -5 44 -120 94 -255 95 -252 173
-463 350 -940 56 -151 138 -372 182 -490 44 -118 98 -264 120 -325 22 -60 44
-119 49 -130 4 -11 45 -118 89 -237 44 -120 116 -316 160 -435 44 -120 94
-252 109 -293 16 -41 46 -120 66 -176 20 -56 40 -106 43 -111 4 -6 95 -26 202
-44 l195 -34 0 -165 0 -165 -905 0 -905 0 -2 157 c-2 184 -10 172 114 182 46
4 93 9 105 11 12 3 62 8 111 11 l89 7 24 38 c13 21 24 44 24 52 0 7 -19 64
-41 127 -23 63 -47 133 -54 155 -8 22 -34 99 -60 170 -26 72 -51 141 -55 155
-5 14 -34 97 -65 185 -31 88 -71 202 -89 252 l-31 93 -735 0 -735 0 -19 -52
c-10 -29 -58 -165 -106 -303 -49 -137 -126 -353 -170 -480 -45 -126 -88 -244
-95 -262 -13 -30 -12 -34 22 -77 27 -34 43 -46 64 -47 16 -1 32 -2 37 -3 4 -1
36 -5 72 -10 36 -4 79 -9 95 -11 17 -2 57 -6 90 -10 33 -3 69 -7 80 -9 19 -3
20 -11 20 -167 l0 -164 -723 0 -722 0 0 162 c0 181 -7 165 80 178 25 4 52 9
61 10 9 2 40 6 70 10 30 4 57 8 60 10 5 4 90 16 117 18 6 0 12 1 12 1 0 1 34
94 76 206 41 113 81 223 89 245 7 22 52 146 99 275 48 129 153 415 232 635 80
220 152 418 161 440 8 22 39 105 68 185 109 299 287 786 400 1095 65 176 126
345 137 375 10 30 37 102 58 160 21 58 72 197 114 310 41 113 78 213 81 223 7
16 33 17 359 17 l353 0 13 -42z"/>
<path d="M3283 5277 c-35 -105 -104 -301 -113 -322 -5 -11 -57 -157 -115 -325
-133 -381 -160 -459 -190 -540 -80 -221 -137 -391 -133 -395 3 -3 268 -4 590
-3 l585 3 -119 330 c-66 182 -123 339 -128 350 -5 11 -20 52 -33 90 -14 39
-45 126 -70 195 -97 266 -181 499 -210 580 -16 47 -33 88 -36 92 -4 5 -16 -20
-28 -55z"/>
</g>
</svg>
